<svg xmlns="http://www.w3.org/2000/svg" width="67.653" height="99.881" viewBox="0 0 67.653 99.881">
  <defs>
    <style>
      .cls-1 {
        fill: #0f036f;
      }
    </style>
  </defs>
  <g id="MicrosoftTeams-image_8_" data-name="MicrosoftTeams-image (8)" transform="translate(-4.6 -2.502)">
    <path id="Path_35658" data-name="Path 35658" class="cls-1" d="M19.295,200.481H4.6V155.824A7.711,7.711,0,0,1,7.463,149.5c3.244-2.7,6.345-5.63,9.757-8.135,1.646-1.217,3.841-1.67,5.821-2.409.883-.334,1.813-.549,2.934-.859,0,1.527-.024,8.993-.024,9.948a14.436,14.436,0,0,1-3.03,1.622c-2.863.787-3.7,2.863-3.936,5.51a50.344,50.344,0,0,1-.906,4.962c-.1.5-.167,1-.31,1.765,1.431-.549,2.648-1,3.865-1.479a76.605,76.605,0,0,0,7.109-2.91,12.488,12.488,0,0,0,3.268-2.886c1.551-1.67,2.934-3.483,4.461-5.153a4.391,4.391,0,0,1,5.892-.382,4.313,4.313,0,0,1,.835,5.749c-1.718,2.552-3.411,5.129-5.272,7.562-1.217,1.622-2.791,2.958-4.031,4.532a18.57,18.57,0,0,0-3.316,7.634,26.35,26.35,0,0,1-7.443,13.86,10.809,10.809,0,0,0-3.387,7.968C19.652,197.761,19.438,199.073,19.295,200.481Z" transform="translate(0 -102.263)"/>
    <path id="Path_35659" data-name="Path 35659" class="cls-1" d="M150.593,158.857h-6.536c-1.217,0-2.409-.048-3.626.024-.811.024-1.05-.286-1.05-1.073.024-2.576,0-5.153.024-7.729a1.527,1.527,0,0,1,.358-1.1c2.481-2.171,3.984-5.081,5.8-7.729a11.222,11.222,0,0,0,2.075-4.079c.763-4.509-3.292-7.681-7.634-6.155-.143.048-.31.072-.62.143,0-1.169-.024-2.29.024-3.411.024-.239.31-.5.549-.668.31-.239.716-.382,1.026-.62,1.837-1.431,8.9-4.676,9.256-4.2.525.692.286,1.98.286,3.006.024,10.663,0,21.326,0,31.99A11.257,11.257,0,0,1,150.593,158.857Z" transform="translate(-102.624 -86.068)"/>
    <path id="Path_35660" data-name="Path 35660" class="cls-1" d="M139.5,83.6h11.188V55.4H140.406a.906.906,0,0,0-.906.906Z" transform="translate(-102.72 -39.291)"/>
    <path id="Path_35661" data-name="Path 35661" class="cls-1" d="M107.653,77.624a24.212,24.212,0,0,0-1.765-2.052c-.239-.215-.692-.191-1.073-.286.048.334,0,.763.191,1,.74,1,1.6,1.908,2.314,2.934a8.86,8.86,0,0,1,.787,1.813c-.167.1-.31.167-.477.262-.62-.763-1.217-1.5-1.837-2.266-1.956-2.457-2.624-2.576-5.415-.716A6.05,6.05,0,0,1,99.8,76.6c-.048-6.632-.024-13.287-.024-19.919,0-.978.477-1.384,1.407-1.384,1.932,0,3.865.024,5.8,0,.74-.024,1,.262,1,.978-.024,5.2.167,10.4-.119,15.577-.1,1.551.382,3.03.119,4.556a8.571,8.571,0,0,0-.072,1.121C107.844,77.552,107.749,77.6,107.653,77.624Z" transform="translate(-72.471 -39.21)"/>
    <path id="Path_35662" data-name="Path 35662" class="cls-1" d="M99.824,93.878S99.8,57.285,99.8,56.593a1.1,1.1,0,0,1,1.217-1.193h6.107a.769.769,0,0,1,.859.74c0,.668.143,27.195.143,28.34s-.453,1.6-1.407,2.6c-.453.453-1.98,1.98-3.483,3.459C101.518,92.208,99.824,93.878,99.824,93.878Z" transform="translate(-72.49 -39.291)"/>
    <path id="Path_35664" data-name="Path 35664" class="cls-1" d="M107.9,155.85c.143,1.67.239,3.2-1.217,4.6-1.694,1.622-3.03,3.578-4.628,5.32a13.27,13.27,0,0,1-2.266,1.5c0-2.147-.048-3.912.048-5.677.024-.334.549-.716.93-.954,1.36-.93,1.861-2,1.264-3.125a2.609,2.609,0,0,0-.859-.978c-1.527-.954-1.646-1.24-1.169-3.435,1.026,1.384,1.908,2.648,2.863,3.841.358.453.549,1.574,1.407,1.026,1-.668-.119-1.217-.429-1.741a25.193,25.193,0,0,0-1.789-2.409c-.453-.573-.692-1.1,0-1.646a1.283,1.283,0,0,1,1.932.048c.859.954,1.574,2.028,2.433,2.982a4.718,4.718,0,0,0,1.145.74C107.665,155.922,107.784,155.874,107.9,155.85Z" transform="translate(-72.459 -112.666)"/>
    <path id="Path_35665" data-name="Path 35665" class="cls-1" d="M122.754,260.972c0,2.266.024,4.532-.024,6.823,0,.262-.453.692-.716.716a27.1,27.1,0,0,1-2.815.024,16.468,16.468,0,0,1,3.22-7.634C122.54,260.924,122.659,260.948,122.754,260.972Z" transform="translate(-87.262 -195.769)"/>
    <path id="Path_35670" data-name="Path 35670" class="cls-1" d="M89.964,165.243v1.741c-.1.048-.191.1-.31.143-.262-.262-.811-.6-.763-.787a4.84,4.84,0,0,1,.763-1.24A.739.739,0,0,1,89.964,165.243Z" transform="translate(-64.181 -122.822)"/>
    <path id="Path_35672" data-name="Path 35672" class="cls-1" d="M100.586,175.8c.262.262.763.573.716.787a4.076,4.076,0,0,1-.692,1.193c-.1-.048-.215-.1-.31-.143v-1.646C100.4,175.919,100.491,175.872,100.586,175.8Z" transform="translate(-72.871 -130.969)"/>
    <path id="Path_35677" data-name="Path 35677" class="cls-1" d="M202.215,104.181h12.81V4.3h-12.81A10.12,10.12,0,0,0,192.1,14.415V94.09A10.115,10.115,0,0,0,202.215,104.181Z" transform="translate(-142.772 -1.798)"/>
  </g>
</svg>
