<svg id="noun_QR_Code_2214305" data-name="noun_QR Code_2214305" xmlns="http://www.w3.org/2000/svg" width="100" height="100" viewBox="0 0 100 100">
  <defs>
    <style>
      .cls-1 {
        fill: none;
      }

      .cls-2 {
        fill: #0f036f;
      }

      .cls-3 {
        fill: #fff;
      }
    </style>
  </defs>
  <rect id="Rectangle_3019" data-name="Rectangle 3019" class="cls-1" width="100" height="100"/>
  <path id="Path_35642" data-name="Path 35642" class="cls-2" d="M72,0H28c-3.48,0-6.31,3.09-6.31,6.91V93.09c0,3.82,2.83,6.91,6.31,6.91H72c3.48,0,6.31-3.09,6.31-6.91V6.91C78.28,3.09,75.45,0,72,0ZM50,94.34a4.55,4.55,0,1,1,4.55-4.55A4.55,4.55,0,0,1,50,94.34Z"/>
  <path id="Path_35643" data-name="Path 35643" class="cls-3" d="M54.244,56.079V54.05h2.017V52.021h2.029V62.153H56.261V60.124H52.215V56.067h2.029ZM72.466,29.742V27.714H70.437v2.029ZM54.244,54.05V52.021H52.215V54.05ZM74.459,25.7V23.68H72.466V25.7Zm0,24.308V45.947H72.466V50Zm0-18.222H72.466v2.029h1.993Zm0,8.1v-2.04H70.437v2.029ZM48.17,56.079h2.017V50H48.17ZM50.187,58.1H48.17v4.057h4.045V60.124H50.187Zm-4.034-6.074V66.174H32V52.021ZM34.005,54.05V64.158H44.124V54.05Zm36.444,8.1V56.079H64.363v6.074ZM68.409,41.89h2.029V39.873H68.409ZM36.01,56.043v6.109H42.1V56.079ZM32,23.68H46.153V37.833H32ZM34.029,25.7V35.852H44.148V25.7ZM60.306,66.2V52.045H74.459V66.2Zm12.16-2.04V54.05H62.335V64.158Zm-24.3,0v2.029H58.289V64.158ZM58.289,37.833h2.017V35.852H58.289Zm8.1,6.074H64.363v2.029h2.029V50h4.057V45.947h2.017V43.919H68.42V41.89H66.392ZM40.067,50V45.947H38.039V50ZM56.261,33.8V29.742h2.029V27.714H52.215v2.029H48.17v2.029h6.074v6.074h2.017V35.852h2.029V33.8Zm6.074-2.029V33.8H60.306v2.052h4.057v6.074h2.029V37.845h4.057V35.852h2.017V33.8H68.42V25.7H66.392v6.074Zm0,2.029V31.771H58.289V33.8Zm0,14.153H60.306V45.947H58.289V43.919H56.261V41.89H52.215V35.852H48.158V37.88h2.029v2.029h-8.1v2.017H38.039V39.873H32V41.89h4.01v2.04H32V50h4.01V47.976H33.993V45.959h4.045V43.931h6.074V41.89h2.04v2.04H50.2v2.029H46.153v2.017h-2.04V50H48.17V47.976h2.017V50h6.074V47.976H52.215V45.959h4.045v2.017h2.029V50h6.074V45.959H62.335Zm2.029-22.279H62.335v4.045h2.029ZM36.057,27.7v6.074h6.086v-6.05Zm26.325,0V23.68H60.306V25.7H58.289v2.029ZM58.336,39.85H56.261v2.017h2.029ZM50.234,27.7V23.68H48.17v4.045Zm16.205-2.029V23.68H64.363V25.7ZM54.244,41.89V39.873H52.215V41.89ZM44.113,43.919v2.029h2.04V43.919Zm0,0" transform="translate(-3.229 -1.234)"/>
</svg>
