<svg xmlns="http://www.w3.org/2000/svg" width="75.533" height="108.293" viewBox="0 0 75.533 108.293">
  <defs>
    <style>
      .cls-1 {
        fill: #0f036f;
      }

      .cls-2 {
        fill: #fff;
        stroke: #fff;
        fill-rule: evenodd;
      }
    </style>
  </defs>
  <g id="Group_13178" data-name="Group 13178" transform="matrix(1, 0.017, -0.017, 1, -144.539, -71.669)">
    <g id="Group_13176" data-name="Group 13176" transform="matrix(-0.208, -0.978, 0.978, -0.208, 157.017, 177.248)">
      <g id="Group_13175" data-name="Group 13175" transform="translate(0 0)">
        <path id="Path_35645" data-name="Path 35645" class="cls-1" d="M6.11,0C7.925,2.128,9.244,3.615,10.5,5.155c2.394,2.945,2.592,5.336.682,7.534-1.9,2.181-5.006,2.416-7.692-.251C2.358,18.333,1.18,24.467.058,30.25c-.365,1.884,1.084,1.959,2.221,2.186,6.422,1.284,12.856,2.509,19.286,3.756q13.371,2.594,26.741,5.194c3.47.677,3.59.641,4.275-2.883,1.684-8.662,3.292-17.339,5.017-25.992.314-1.576.124-2.518-1.6-2.851C39.637,6.5,23.279,3.327,6.11,0Z" transform="translate(38.056 33.08)"/>
        <path id="Path_35646" data-name="Path 35646" class="cls-1" d="M14.04,0,0,15.071C5.592,20.278,4.906,27.518,6.146,34.1,7,38.631,8.917,41.63,13.123,44.006c8.129,4.592,17.231,6.169,26.36,5.81l.937-4.882-2.644-3.7s-2.633-2.645-4.159-3.93l-3.766-2.762-3.02-2.114a6.5,6.5,0,0,1,0-1.606A84.5,84.5,0,0,1,34.87,36.6c2.8,2.487,5.24,5.311,7.844,8.026,1.53,1.595,3.267,2.111,5.061.481,1.737-1.577,1.6-3.434.253-5.161C44.8,35.814,41.372,31.837,38.3,27.6a16.258,16.258,0,0,1-2.516-5.939c-1.387-6.323-5.053-10.7-10.532-13.949C21.464,5.459,17.964,2.723,14.04,0Z" transform="translate(0)"/>
        <path id="Path_35648" data-name="Path 35648" class="cls-1" d="M4.385,5.715C2.872-.308,2.872-.308,0,.207c.581,4.1,3.493,7.036,5.92,9.969l3.632.618C10.469,5.894,9.009,4.161,4.385,5.715Z" transform="translate(37.349 21.59)"/>
      </g>
    </g>
    <g id="noun_Contactless_Bank_Card_58070" data-name="noun_Contactless Bank Card_58070" transform="translate(185.481 82.246)">
      <g id="Group_13177" data-name="Group 13177" transform="translate(0 0)">
        <path id="Path_35654" data-name="Path 35654" class="cls-2" d="M76.221,9.864a1.24,1.24,0,0,1-.89.758c-.251.047-.426-.011-1.124-.372a17.6,17.6,0,0,0-8.563-2.09,17.346,17.346,0,0,0-8.249,1.953,8.389,8.389,0,0,1-1.256.543,1.279,1.279,0,0,1-.912-.526,1.19,1.19,0,0,1,.092-1.3,6.109,6.109,0,0,1,1.1-.669,20.843,20.843,0,0,1,6.339-2.017,24.858,24.858,0,0,1,5.272-.083,20.728,20.728,0,0,1,6.462,1.91c1.235.6,1.742.972,1.742,1.285a.915.915,0,0,0,.036.227.943.943,0,0,1-.044.383Zm-2.1,5.057a1.114,1.114,0,0,1-1.273.749c-.114-.037-.651-.283-1.187-.547a13.264,13.264,0,0,0-7.113-1.353A12.846,12.846,0,0,0,59.516,15.2c-1.219.6-1.408.624-1.9.278a1.134,1.134,0,0,1-.146-1.585A14.6,14.6,0,0,1,60.795,12.3a15.787,15.787,0,0,1,11.145.517c1.836.781,2.4,1.33,2.177,2.1ZM71.981,20.1a1.265,1.265,0,0,1-.83.675c-.209.047-.441-.032-1.214-.415a8.924,8.924,0,0,0-8.367-.047c-1.221.6-1.464.618-1.945.107a.8.8,0,0,1-.278-.711c0-.594.3-.9,1.386-1.432a10.568,10.568,0,0,1,4.989-1.147,10.167,10.167,0,0,1,4.994,1.186c1.011.5,1.278.745,1.346,1.245a1.17,1.17,0,0,1-.081.54Z" transform="translate(-55.074 -5.955)"/>
      </g>
    </g>
  </g>
</svg>
