<svg xmlns="http://www.w3.org/2000/svg" width="100" height="83.505" viewBox="0 0 100 83.505">
  <defs>
    <style>
      .cls-1 {
        fill: #0f036f;
      }
    </style>
  </defs>
  <g id="noun_ecommerce_371351" transform="translate(-1.5 -9.5)">
    <path id="Path_35678" data-name="Path 35678" class="cls-1" d="M97.067,58.881a4.523,4.523,0,0,1-.928-2.784V17.232A7.721,7.721,0,0,0,88.407,9.5H26.552a7.721,7.721,0,0,0-7.732,7.732v23.2h0v9.885h7.629V17.129H88.407V56.716L45.214,56.51,44.7,58.366a5.437,5.437,0,0,1-.309,1.237L40.781,72.387l55.461.206a5.28,5.28,0,0,0,5.258-5.258V65.067a2.924,2.924,0,0,0-.412-1.34ZM65.83,64.964a2.729,2.729,0,0,1-2.68,2.68H51.809a2.729,2.729,0,0,1-2.68-2.68v-.619h16.7v.619ZM50.572,49.5a1.586,1.586,0,0,0,1.546-1.546v-.206A1.586,1.586,0,0,0,50.572,46.2h-8.66l-1.959,6.907a4.518,4.518,0,0,0-2.371-.619H6.861a4.4,4.4,0,0,0-3.608,1.753,4.341,4.341,0,0,0-.825,4.021l4.124,16.8a4.644,4.644,0,0,0,4.536,3.505H36.036a1.856,1.856,0,0,1,0,3.711H6.655a5.363,5.363,0,1,0,5.567,5.361,4.816,4.816,0,0,0-.309-1.753H26.139a4.816,4.816,0,0,0-.309,1.753,5.361,5.361,0,1,0,10.722,0,4.816,4.816,0,0,0-.309-1.753,5.506,5.506,0,0,0,1.031-10.825l4.742-16.7c.1-.309.1-.515.206-.825L44.49,49.5h6.082ZM6.861,89.4a1.753,1.753,0,1,1,0-3.505,1.807,1.807,0,0,1,1.753,1.753A1.738,1.738,0,0,1,6.861,89.4Zm24.433,0a1.753,1.753,0,1,1,1.753-1.753A1.738,1.738,0,0,1,31.294,89.4ZM5.83,57.335a1.253,1.253,0,0,1,.206-.928,1.232,1.232,0,0,1,.825-.412h2.99l.825,4.124H6.552ZM7.376,63.83H11.4l.825,3.814H8.407Zm3.608,11.031a1,1,0,0,1-1.031-.825l-.722-2.784h3.711l.722,3.608Zm9.278,0H17.479l-.722-3.608h3.608v3.608Zm0-7.216h-4.33l-.825-3.814h5.155Zm0-7.423H14.284L13.459,56.1h6.8Zm6.186,14.639H23.871V71.253h3.3Zm1.546-7.216H23.871V63.83H28.82Zm-4.124-7.423h0V56.1h6.7l-.928,4.124Zm10,13.918a1.024,1.024,0,0,1-1.031.722H30.057l.825-3.608H34.7Zm1.856-6.495H31.706l.825-3.814h4.227Zm2.887-10.309-.825,2.887H33.356l.928-4.124h3.4a1.232,1.232,0,0,1,.825.412A1.552,1.552,0,0,1,38.613,57.335Z" transform="translate(0 0)"/>
  </g>
</svg>
