<svg xmlns="http://www.w3.org/2000/svg" width="100" height="91.08" viewBox="0 0 100 91.08">
  <defs>
    <style>
      .cls-1 {
        fill: #326fca;
      }

      .cls-2 {
        fill: #fff;
      }
    </style>
  </defs>
  <g id="Group_13170" data-name="Group 13170" transform="translate(-8476.995 -2798)">
    <g id="noun_mobile_transfer_3216251" data-name="noun_mobile transfer_3216251" transform="translate(8476.995 2798)">
      <g id="Group_13169" data-name="Group 13169" transform="translate(0 0)">
        <path id="Path_35620" data-name="Path 35620" class="cls-1" d="M87.329,32.94A1.18,1.18,0,0,0,88.5,31.768V28.253a1.18,1.18,0,0,0-1.172-1.172.827.827,0,0,0-.187.047V14.38a8.541,8.541,0,0,0-8.53-8.53H37.3a8.541,8.541,0,0,0-8.53,8.53v19.31a19.446,19.446,0,0,1,4.624-.7c.547,0,1.094.016,1.625.063V20.363H80.892V82.416H35.024V70.84c-.359.016-.719.031-1.078.031a18.386,18.386,0,0,1-5.171-.734V88.416A8.528,8.528,0,0,0,37.3,96.93H78.611a8.518,8.518,0,0,0,8.53-8.514V42.3a.822.822,0,0,0,.187.047A1.18,1.18,0,0,0,88.5,41.173V37.658a1.18,1.18,0,0,0-1.172-1.172.822.822,0,0,0-.187.047v-3.64A.822.822,0,0,0,87.329,32.94Zm-24.621-18.4H53.224a1.172,1.172,0,0,1,0-2.343h9.483a1.172,1.172,0,0,1,0,2.343ZM58.27,92.384A2.679,2.679,0,1,1,60.942,89.7,2.68,2.68,0,0,1,58.27,92.384Z" transform="translate(11.5 -5.85)"/>
        <path id="Path_35621" data-name="Path 35621" class="cls-1" d="M37.572,24.72A16.523,16.523,0,0,0,21.465,41.311a15.075,15.075,0,0,0,.281,2.968A16.593,16.593,0,1,0,37.572,24.72Z" transform="translate(7.382 4.757)"/>
        <g id="Group_13168" data-name="Group 13168" transform="translate(10.28 28.083)">
          <path id="Path_35622" data-name="Path 35622" class="cls-1" d="M32.1,50.231H22.026v2.781a1.17,1.17,0,0,1-.687,1.078,1.272,1.272,0,0,1-.484.094,1.137,1.137,0,0,1-.781-.3l-10.108-9a1.2,1.2,0,0,1-.391-.875,1.148,1.148,0,0,1,.391-.875l10.108-9.014a1.2,1.2,0,0,1,1.265-.187A1.164,1.164,0,0,1,22.026,35V37.78h3.843c.062.625.141,1.219.25,1.781A18.713,18.713,0,0,0,32.1,50.231Z" transform="translate(-9.575 -18.198)"/>
          <g id="Group_13167" data-name="Group 13167" transform="translate(47.868)">
            <path id="Path_35623" data-name="Path 35623" class="cls-1" d="M62.68,34a1.148,1.148,0,0,1-.391.875L52.182,43.892a1.216,1.216,0,0,1-.781.3,1.287,1.287,0,0,1-.484-.109,1.164,1.164,0,0,1-.687-1.062V40.236H46.4a19.2,19.2,0,0,0-6.187-12.451H50.229V25a1.17,1.17,0,0,1,.687-1.078,1.182,1.182,0,0,1,1.265.2l10.108,9A1.2,1.2,0,0,1,62.68,34Z" transform="translate(-40.215 -23.826)"/>
          </g>
        </g>
        <path id="Path_35624" data-name="Path 35624" class="cls-1" d="M40.927,88.416v-6H10.6V20.363H40.927V14.38a10.828,10.828,0,0,1,4.156-8.53h-32.2a8.541,8.541,0,0,0-8.53,8.53V27.128a.828.828,0,0,0-.187-.047,1.18,1.18,0,0,0-1.172,1.172v3.515A1.18,1.18,0,0,0,4.167,32.94a.823.823,0,0,0,.187-.047v3.64a.823.823,0,0,0-.187-.047,1.18,1.18,0,0,0-1.172,1.172v3.515a1.18,1.18,0,0,0,1.172,1.172.823.823,0,0,0,.187-.047V88.416a8.518,8.518,0,0,0,8.53,8.514h32.2A10.8,10.8,0,0,1,40.927,88.416ZM28.788,12.193h9.483a1.172,1.172,0,0,1,0,2.343H28.788a1.172,1.172,0,1,1,0-2.343Zm4.437,80.191a2.679,2.679,0,1,1,2.7-2.687A2.684,2.684,0,0,1,33.225,92.384Z" transform="translate(-2.995 -5.85)"/>
      </g>
    </g>
    <path id="Path_35625" data-name="Path 35625" class="cls-2" d="M46.3,34.164a.831.831,0,0,1-.887.771H42.518a4.749,4.749,0,0,1-4.706,3.293h-1l6.249,5.429a.762.762,0,0,1,.039,1.121,1.15,1.15,0,0,1-.617.245,1.09,1.09,0,0,1-.617-.21l-7.792-6.76h0c-.077-.07-.154-.14-.154-.21,0-.035-.039-.07-.039-.105s-.039-.07-.039-.105v-.315A1.19,1.19,0,0,1,33.993,37h0a.77.77,0,0,1,.27-.21c.077-.07.193-.07.27-.105H37.85a3.211,3.211,0,0,0,2.893-1.716H34.649A.82.82,0,0,1,33.8,34.2a.848.848,0,0,1,.849-.806H40.9a3.029,3.029,0,0,0-2.7-2.382c-.116,0-.27-.035-.386-.035H34.649a.853.853,0,0,1-.849-.631v-.315c0-.035.039-.105.039-.14s.039-.07.039-.105a.783.783,0,0,1,.154-.175l.116-.105a.991.991,0,0,1,.463-.105H45.372a.809.809,0,1,1,0,1.611H41.515a4.24,4.24,0,0,1,1.119,2.382h2.739A.823.823,0,0,1,46.3,34.164Z" transform="translate(8482.979 2807.45)"/>
  </g>
</svg>
