<?xml version="1.0" encoding="utf-8"?>
<!-- Generator: Adobe Illustrator 25.1.0, SVG Export Plug-In . SVG Version: 6.00 Build 0)  -->
<svg version="1.1" id="Layer_1" xmlns="http://www.w3.org/2000/svg" xmlns:xlink="http://www.w3.org/1999/xlink" x="0px" y="0px"
	 viewBox="0 0 162.1 162.1" style="enable-background:new 0 0 162.1 162.1;" xml:space="preserve">
<style type="text/css">
	.st0{fill:url(#SVGID_1_);}
	.st1{fill:url(#SVGID_2_);}
	.st2{fill:url(#SVGID_3_);}
	.st3{fill:url(#SVGID_4_);}
	.st4{fill:url(#SVGID_5_);}
	.st5{fill:#FFFFFF;stroke:#120D0A;stroke-width:0.1;}
	.st6{fill:#FFFFFF;}
	.st7{fill:none;}
	.st8{clip-path:url(#SVGID_7_);}
	.st9{fill-rule:evenodd;clip-rule:evenodd;fill:#FFFFFF;}
</style>
<linearGradient id="SVGID_1_" gradientUnits="userSpaceOnUse" x1="7.277777e-09" y1="81.0077" x2="162.0992" y2="81.0077">
	<stop  offset="0" style="stop-color:#F7D166"/>
	<stop  offset="1" style="stop-color:#F8A085"/>
</linearGradient>
<circle class="st0" cx="81" cy="81" r="81"/>
<g id="Component_5_5" transform="translate(.05 .05)">
	<g id="Group_7092" transform="translate(-129 -379.663)">
		<path id="Path_1111" class="st5" d="M210,401.6c6.6,0,13.1,1.1,19.4,3.3c1.3,0.5,2.8-0.2,3.2-1.6s-0.2-2.8-1.6-3.2
			c-33.4-11.6-69.8,6-81.4,39.4c-4.8,13.9-4.7,29.1,0.3,42.9c0.5,1.3,1.9,2,3.2,1.5c1.3-0.5,2-1.9,1.5-3.2l0,0
			c-11.1-30.6,4.7-64.4,35.2-75.5C196.4,402.8,203.2,401.6,210,401.6z"/>
		<path id="Path_1113" class="st5" d="M266.8,412.1c0-1-0.8-1.7-1.7-1.7h-9.3v-9.3c0-1-0.8-1.8-1.8-1.8c-1,0-1.8,0.8-1.8,1.8v9.3
			h-9.9c-1,0-1.8,0.8-1.8,1.8s0.8,1.8,1.8,1.8h9.8v9.8c0,1,0.8,1.8,1.8,1.8c1,0,1.8-0.8,1.8-1.8v-9.8h9.3
			C265.9,413.9,266.7,413.2,266.8,412.1C266.8,412.2,266.8,412.2,266.8,412.1L266.8,412.1z"/>
		<path id="Path_1114" class="st5" d="M173.6,513c10.7,7.5,23.4,11.4,36.4,11.4c35.3,0,63.9-28.7,63.9-64c0-8.4-1.7-16.8-4.9-24.6
			c-0.5-1.3-2-1.9-3.3-1.4c-1.3,0.5-1.9,2-1.4,3.3l0,0c12.5,30-1.7,64.5-31.7,77c-18.5,7.7-39.6,5.5-56.1-5.9L173.6,513z"/>
	</g>
	<g id="Path_15961">
		<path class="st6" d="M51.3,123l-12.8,13.7c-0.3,0.3-0.7,0.3-0.9,0.2c-0.2-0.1-0.5-0.2-0.6-0.7l-3.4-16c-0.1-0.4,0.1-0.7,0.2-0.8
			c0.1-0.1,0.4-0.3,0.8-0.3l16.2,2.3c0.5,0.1,0.6,0.4,0.7,0.6C51.6,122.3,51.6,122.6,51.3,123z"/>
		<path class="st6" d="M36.1,121.7l2.5,11.7l9.4-10.1L36.1,121.7 M32.2,118c0.6-0.7,1.6-1.1,2.7-0.9l16.2,2.3
			c2.4,0.3,3.5,3.3,1.8,5.1l-12.8,13.7c-1.7,1.8-4.7,1-5.2-1.4l-3.4-16C31.2,119.7,31.6,118.7,32.2,118L32.2,118z"/>
	</g>
	<path class="st6" d="M80.9,37.1c24.2,0,43.8,19.6,43.8,43.8s-19.6,43.8-43.8,43.8c-24.2,0-43.8-19.6-43.8-43.8
		C37.1,56.7,56.7,37.1,80.9,37.1C80.9,37.1,80.9,37.1,80.9,37.1z M94.7,66.7c0-0.9-0.8-1.7-1.7-1.7H69c-0.9,0-1.7,0.8-1.7,1.7
		c0,0.9,0.8,1.7,1.7,1.7h6.9c4.1,0,7.6,2.9,8.5,6.9H69c-0.9,0-1.7,0.8-1.7,1.7c0,0.9,0.8,1.7,1.7,1.7c0,0,0,0,0,0h15.3
		c-0.8,4-4.3,6.9-8.5,6.9H69c-0.9,0-1.7,0.8-1.7,1.7c0,0.5,0.2,0.9,0.5,1.2L85,104.8c0.7,0.7,1.7,0.7,2.4,0c0.7-0.7,0.7-1.7,0-2.4
		c0,0,0,0-0.1-0.1L73.2,89h2.6c6,0,11.1-4.4,11.9-10.3H93c0.9,0,1.7-0.8,1.7-1.7c0-0.9-0.8-1.7-1.7-1.7h-5.3
		c-0.4-2.6-1.6-5.1-3.5-6.9H93C94,68.4,94.7,67.6,94.7,66.7L94.7,66.7z"/>
</g>
</svg>
