<?xml version="1.0" encoding="utf-8"?>
<!-- Generator: Adobe Illustrator 25.1.0, SVG Export Plug-In . SVG Version: 6.00 Build 0)  -->
<svg version="1.1" id="Layer_1" xmlns="http://www.w3.org/2000/svg" xmlns:xlink="http://www.w3.org/1999/xlink" x="0px" y="0px"
	 viewBox="0 0 162.1 162.1" style="enable-background:new 0 0 162.1 162.1;" xml:space="preserve">
<style type="text/css">
	.st0{fill:url(#SVGID_1_);}
	.st1{fill:url(#SVGID_2_);}
	.st2{fill:url(#SVGID_3_);}
	.st3{fill:url(#SVGID_4_);}
	.st4{fill:url(#SVGID_5_);}
	.st5{fill:#FFFFFF;stroke:#120D0A;stroke-width:0.1;}
	.st6{fill:#FFFFFF;}
	.st7{fill:none;}
	.st8{clip-path:url(#SVGID_7_);}
	.st9{fill-rule:evenodd;clip-rule:evenodd;fill:#FFFFFF;}
</style>
<linearGradient id="SVGID_1_" gradientUnits="userSpaceOnUse" x1="3.637979e-09" y1="81.0676" x2="162.0992" y2="81.0676">
	<stop  offset="0" style="stop-color:#DD3A95"/>
	<stop  offset="1" style="stop-color:#776AAF"/>
</linearGradient>
<circle class="st0" cx="81" cy="81.1" r="81"/>
<g>
	<path class="st6" d="M54.3,98.5l-3,2.7c-1,0.9-2.3,1.6-3.6,2.1L46,97.9c-0.2-0.7-0.9-1.2-1.6-1.2H29.7c-0.9,0-1.7,0.8-1.7,1.7
		c0,0.1,0,0.1,0,0.2l4.9,40.2c0.1,0.8,0.8,1.5,1.7,1.5h22.1c0.9,0,1.7-0.8,1.7-1.7c0-0.2,0-0.3-0.1-0.5l-2.8-9.3l8.8-5.6
		c1.1-0.6,2.5-0.8,3.7-0.5c0,0,0.1,0,0.1,0l18.4,3.4c5.1,0.9,10.3,0.2,14.9-2.1c0.1,0,0.1-0.1,0.2-0.1l31.8-21.8
		c0.7-0.5,0.9-1.5,0.5-2.2c-2.5-4.1-7.8-5.6-12-3.3l-0.3,0.2c-2.3-2.6-6.1-3.6-9.1-2.1c0,0,0,0,0,0l-1.1,0.6
		c-3.2-2.6-7.7-3-11.3-0.9l-6.8,3.7h-9.1c-1.9,0-3.9-0.4-5.6-1.3l-1.3-0.6c-7.4-3.6-16.2-2.8-22.8,2.2
		C54.3,98.4,54.3,98.4,54.3,98.5z M36.1,136.9L31.6,100h11.6l11.2,36.9H36.1z M113.9,97.6c1.4-0.7,3.2-0.2,4.4,0.8l-11.7,6.3
		l-0.4,0.2c-0.3-0.9-0.8-1.7-1.4-2.5L113.9,97.6z M101.6,97.3L101.6,97.3c2-1.1,4.3-1.2,6.3-0.2l-5.5,2.9c-0.9-0.7-2-1.2-3.1-1.5
		L101.6,97.3z M75.7,99.2l1.3,0.6c2.2,1.1,4.6,1.6,7.1,1.6h12.2c3.4,0,6.4,2.3,7.2,5.6l-8.5-0.4c-3.2-0.1-6.5,0-9.7,0.4
		c-0.9,0.1-1.6,1-1.5,1.9c0.1,0.9,1,1.6,1.9,1.5c0,0,0,0,0,0c3-0.4,6.1-0.6,9.1-0.4l10.4,0.5c0,0,0.1,0,0.1,0c0.9,0,1.7-0.8,1.7-1.7
		c0-0.2,0-0.3,0-0.5l1.3-0.7l15.1-8.2c2.1-1.2,4.8-0.8,6.6,0.8l-30.2,20.7c-3.9,1.9-8.4,2.5-12.7,1.8l-18.3-3.4
		c-2.1-0.5-4.3-0.2-6.2,0.8c0,0-0.1,0-0.1,0l-8.1,5.1l-5.8-19c1.8-0.6,3.4-1.5,4.8-2.8l3-2.7C62,96.8,69.5,96.1,75.7,99.2L75.7,99.2
		z"/>
	<path class="st6" d="M39.8,131.6c0,2.6,2.1,4.6,4.6,4.6c2.6,0,4.6-2.1,4.6-4.6c0-2.6-2.1-4.6-4.6-4.6
		C41.9,126.9,39.8,129,39.8,131.6z M44.5,130.3c0.7,0,1.3,0.6,1.3,1.3c0,0.7-0.6,1.3-1.3,1.3c-0.7,0-1.3-0.6-1.3-1.3c0,0,0,0,0,0
		C43.2,130.9,43.8,130.3,44.5,130.3z"/>
	<path class="st6" d="M57.1,53l6.3-7.8l-0.5-10c0-0.8,0.5-1.5,1.2-1.7l9.6-2.6l5.4-8.3c0.4-0.7,1.3-0.9,2-0.7l9.3,3.5l9.3-3.5
		c0.7-0.3,1.6,0,2,0.7l5.4,8.3l9.6,2.6c0.8,0.2,1.3,0.9,1.2,1.7l-0.5,10l6.3,7.8c0.5,0.6,0.5,1.5,0,2.1l-6.3,7.8l0.5,10
		c0,0.8-0.5,1.5-1.2,1.7l-9.6,2.6l-5.4,8.3c-0.4,0.7-1.3,0.9-2,0.7l-9.3-3.5l-9.3,3.5c-0.7,0.3-1.6,0-2-0.7l-5.4-8.3l-9.6-2.6
		c-0.8-0.2-1.3-0.9-1.2-1.7l0.5-10l-6.3-7.8C56.6,54.5,56.6,53.6,57.1,53z M60.6,54l5.8,7.2c0.3,0.3,0.4,0.7,0.4,1.1l-0.5,9.2
		l8.9,2.4c0.4,0.1,0.7,0.4,1,0.7l5.1,7.7l8.6-3.3c0.4-0.1,0.8-0.1,1.2,0l8.6,3.3l5.1-7.7c0.2-0.3,0.6-0.6,1-0.7l8.9-2.4l-0.5-9.2
		c0-0.4,0.1-0.8,0.4-1.1l5.8-7.2l-5.8-7.2c-0.3-0.3-0.4-0.7-0.4-1.1l0.5-9.2l-8.9-2.4c-0.4-0.1-0.7-0.4-1-0.7l-5.1-7.7l-8.6,3.3
		c-0.4,0.1-0.8,0.1-1.2,0l-8.6-3.3l-5.1,7.7c-0.2,0.3-0.6,0.6-1,0.7l-8.9,2.4l0.5,9.2c0,0.4-0.1,0.8-0.4,1.1L60.6,54z"/>
	<path class="st6" d="M82.7,51.5c3.4,0,6.1-2.7,6.1-6.1s-2.7-6.1-6.1-6.1c-3.4,0-6.1,2.7-6.1,6.1C76.7,48.7,79.4,51.5,82.7,51.5z
		 M82.7,42.7c1.5,0,2.7,1.2,2.7,2.7s-1.2,2.7-2.7,2.7c-1.5,0-2.7-1.2-2.7-2.7c0,0,0,0,0,0C80,43.9,81.2,42.7,82.7,42.7z"/>
	<path class="st6" d="M91.8,63c0,3.4,2.7,6.1,6.1,6.1c3.4,0,6.1-2.7,6.1-6.1c0-3.4-2.7-6.1-6.1-6.1c0,0,0,0,0,0
		C94.5,56.9,91.8,59.7,91.8,63z M100.6,63c0,1.5-1.2,2.7-2.7,2.7s-2.7-1.2-2.7-2.7c0-1.5,1.2-2.7,2.7-2.7c0,0,0,0,0,0
		C99.4,60.3,100.6,61.5,100.6,63L100.6,63z"/>
	<path class="st6" d="M79.7,70.6c0.8,0.5,1.8,0.3,2.3-0.5l19.8-30.4c0.5-0.8,0.3-1.8-0.5-2.3s-1.8-0.3-2.3,0.5c0,0,0,0,0,0
		L79.2,68.3C78.7,69.1,78.9,70.1,79.7,70.6C79.7,70.6,79.7,70.6,79.7,70.6z"/>
</g>
</svg>
