<?xml version="1.0" encoding="utf-8"?>
<!-- Generator: Adobe Illustrator 25.1.0, SVG Export Plug-In . SVG Version: 6.00 Build 0)  -->
<svg version="1.1" id="Layer_1" xmlns="http://www.w3.org/2000/svg" xmlns:xlink="http://www.w3.org/1999/xlink" x="0px" y="0px"
	 viewBox="0 0 162.1 162.1" style="enable-background:new 0 0 162.1 162.1;" xml:space="preserve">
<style type="text/css">
	.st0{fill:url(#SVGID_1_);}
	.st1{fill:url(#SVGID_2_);}
	.st2{fill:url(#SVGID_3_);}
	.st3{fill:url(#SVGID_4_);}
	.st4{fill:url(#SVGID_5_);}
	.st5{fill:#FFFFFF;stroke:#120D0A;stroke-width:0.1;}
	.st6{fill:#FFFFFF;}
	.st7{fill:none;}
	.st8{clip-path:url(#SVGID_7_);}
	.st9{fill-rule:evenodd;clip-rule:evenodd;fill:#FFFFFF;}
</style>
<linearGradient id="SVGID_1_" gradientUnits="userSpaceOnUse" x1="1.818989e-12" y1="81.0676" x2="162.0992" y2="81.0676">
	<stop  offset="0" style="stop-color:#F8A085"/>
	<stop  offset="1" style="stop-color:#E63F97"/>
</linearGradient>
<circle class="st0" cx="81" cy="81.1" r="81"/>
<g>
	<path class="st7" d="M58.7,55.9c-6.3,0-11.4,5.1-11.4,11.4s5.1,11.4,11.4,11.4s11.4-5.1,11.4-11.4C70.1,61,65,55.9,58.7,55.9z"/>
	<path class="st7" d="M79.8,91.4c-4.7,0-8.5,3.8-8.5,8.5c0,4.7,3.8,8.5,8.5,8.5c4.7,0,8.5-3.8,8.5-8.5
		C88.3,95.2,84.5,91.4,79.8,91.4z"/>
	<path class="st7" d="M100.8,38.9c-7.6,0-13.8,6.2-13.8,13.8s6.2,13.8,13.8,13.8c7.6,0,13.8-6.2,13.8-13.8S108.4,38.9,100.8,38.9z"
		/>
	<path class="st7" d="M85.3,22.9c-16.5-1.2-32.2,4.4-44.2,15.6C29.2,49.5,22.4,65.2,22.4,81.4c0,16.8,7.1,32.6,19.6,43.7V92.6
		c0-5.4,3.2-10,7.8-12.1c-4.3-2.9-7.1-7.8-7.1-13.3c0-8.8,7.2-16,16-16c8.8,0,16,7.2,16,16c0,5.5-2.8,10.4-7.1,13.3
		c3.1,1.4,5.6,4,6.9,7.2c1.6-0.7,3.4-1.1,5.2-1.1c0.6,0,1.1,0.1,1.7,0.1v-4.5c0-6.3,3.9-11.8,9.4-14.1c-5.1-3.3-8.6-9-8.6-15.6
		c0-10.2,8.3-18.5,18.5-18.5s18.5,8.3,18.5,18.5c0,6.5-3.4,12.3-8.6,15.6c5.5,2.3,9.4,7.8,9.4,14.1v41.4c0,0.3,0.2,0.5,0.4,0.5
		c0.2,0.1,0.4,0.1,0.6-0.1c13-12.1,19.7-29.3,18.5-47C137.5,48.3,114.2,25,85.3,22.9z"/>
	<path class="st6" d="M85.7,18.3C67.9,17,50.9,23,37.9,35.1C25.1,47,17.8,63.9,17.8,81.4c0,14.9,5.3,29.6,15,40.9
		c1.7,2,3.5,4,5.5,5.8c1.5,1.4,3.9,3.9,6.1,3.9c1.3,0,2.3-1,2.3-2.3V92.6c0-4.8,3.9-8.6,8.6-8.6h6.9c4,0,7.4,2.7,8.3,6.5
		c-2.4,2.4-3.9,5.7-3.9,9.4c0,3.8,1.6,7.3,4.2,9.7v0.1c-3,2-4.8,5.4-4.8,9.1v22c0,1.3,1,2.3,2.3,2.3c1.3,0,2.3-1,2.3-2.3v-0.2v-21.8
		c0-2.4,1.3-4.6,3.5-5.7c0.6-0.3,1.2-0.5,1.8-0.6c1.2,0.4,2.5,0.6,3.8,0.6c1.3,0,2.6-0.2,3.8-0.6c3,0.5,5.3,3.2,5.3,6.3v20.5v2.4
		c0,1.3,1,2.3,2.3,2.3c1.3,0,2.3-1,2.3-2.3v-22.9c0-3.7-1.9-7.1-4.9-9.1c2.7-2.4,4.3-5.9,4.3-9.7c0-5-2.8-9.3-6.8-11.5v-6
		c0-5.9,4.8-10.6,10.6-10.6h8.1c5.8,0,10.6,4.8,10.6,10.6v41.4c0,2.1,1.2,3.9,3.1,4.8c1.9,0.8,4.1,0.5,5.6-1
		c14-13.1,21.3-31.6,19.9-50.8C142,45.7,116.9,20.5,85.7,18.3z M58.7,78.6c-6.3,0-11.4-5.1-11.4-11.4s5.1-11.4,11.4-11.4
		S70.1,61,70.1,67.3C70.1,73.5,65,78.6,58.7,78.6z M88.3,99.9c0,4.7-3.8,8.5-8.5,8.5c-4.7,0-8.5-3.8-8.5-8.5c0-4.7,3.8-8.5,8.5-8.5
		S88.3,95.2,88.3,99.9z M100.8,66.5c-7.6,0-13.8-6.2-13.8-13.8s6.2-13.8,13.8-13.8c7.6,0,13.8,6.2,13.8,13.8S108.4,66.5,100.8,66.5z
		 M121.1,124.2c-0.2,0.2-0.4,0.2-0.6,0.1c-0.2-0.1-0.4-0.2-0.4-0.5V82.4c0-6.3-3.9-11.8-9.4-14.1c5.1-3.3,8.6-9,8.6-15.6
		c0-10.2-8.3-18.5-18.5-18.5s-18.5,8.3-18.5,18.5c0,6.5,3.4,12.3,8.6,15.6c-5.5,2.3-9.4,7.8-9.4,14.1v4.5c-0.6-0.1-1.1-0.1-1.7-0.1
		c-1.8,0-3.6,0.4-5.2,1.1c-1.3-3.2-3.8-5.8-6.9-7.2c4.3-2.9,7.1-7.8,7.1-13.3c0-8.8-7.2-16-16-16c-8.8,0-16,7.2-16,16
		c0,5.5,2.8,10.4,7.1,13.3c-4.6,2.1-7.8,6.7-7.8,12.1v32.5C29.5,114,22.4,98.2,22.4,81.4c0-16.2,6.8-31.9,18.7-42.9
		c12-11.2,27.8-16.7,44.2-15.6c28.9,2.1,52.2,25.4,54.2,54.3C140.8,95,134,112.1,121.1,124.2z"/>
</g>
</svg>
