<?xml version="1.0" encoding="utf-8"?>
<!-- Generator: Adobe Illustrator 25.1.0, SVG Export Plug-In . SVG Version: 6.00 Build 0)  -->
<svg version="1.1" id="Layer_1" xmlns="http://www.w3.org/2000/svg" xmlns:xlink="http://www.w3.org/1999/xlink" x="0px" y="0px"
	 viewBox="0 0 162.1 162.1" style="enable-background:new 0 0 162.1 162.1;" xml:space="preserve">
<style type="text/css">
	.st0{fill:url(#SVGID_1_);}
	.st1{fill:url(#SVGID_2_);}
	.st2{fill:url(#SVGID_3_);}
	.st3{fill:url(#SVGID_4_);}
	.st4{fill:url(#SVGID_5_);}
	.st5{fill:#FFFFFF;stroke:#120D0A;stroke-width:0.1;}
	.st6{fill:#FFFFFF;}
	.st7{fill:none;}
	.st8{fill-rule:evenodd;clip-rule:evenodd;fill:#FFFFFF;}
</style>
<linearGradient id="SVGID_1_" gradientUnits="userSpaceOnUse" x1="3.639798e-09" y1="81.0676" x2="162.0992" y2="81.0676">
	<stop  offset="0" style="stop-color:#BC82B9"/>
	<stop  offset="1" style="stop-color:#706BB0"/>
</linearGradient>
<circle class="st0" cx="81" cy="81.1" r="81"/>
<g transform="translate(-111 -350)">
	<path class="st8" d="M211.6,414.3c-1.4,0-2.7,0.1-4,0.2c0.1-1.3,0.2-2.6,0.2-3.9c0-20.5-17.1-37.2-38.1-37.2
		c-21,0-38.1,16.7-38.1,37.2s17.1,37.2,38.1,37.2c1.4,0,2.7-0.1,4-0.2c-0.1,1.3-0.2,2.6-0.2,4c0,20.5,17.1,37.2,38.1,37.2
		c21,0,38.1-16.7,38.1-37.2S232.6,414.3,211.6,414.3z M169.7,444.1c-18.9,0-34.3-15-34.3-33.5c0-18.5,15.4-33.5,34.3-33.5
		c18.9,0,34.3,15,34.3,33.5c0,1.5-0.1,3.1-0.3,4.6c-1.4,0.3-2.7,0.7-4,1.1c0.4-1.9,0.6-3.7,0.6-5.6c0-16.4-13.7-29.8-30.5-29.8
		c-16.8,0-30.5,13.4-30.5,29.8c0,16.4,13.7,29.8,30.5,29.8c2,0,3.9-0.2,5.8-0.6c-0.4,1.3-0.8,2.6-1.1,3.9
		C172.8,444,171.2,444.1,169.7,444.1z M177.2,435.6c-2.4,0.7-5,1.1-7.5,1.1c-7.4,0-14.1-3-19-7.8c0.3-2.3,2.1-4.2,4.5-4.7l7-1.4
		c0.4-0.1,0.9-0.3,1.3-0.5l6.2,8.1l6.2-8.1c0.4,0.2,0.9,0.4,1.4,0.5l6.9,1.4c0.4,0.1,0.8,0.2,1.2,0.4
		C182,427.8,179.2,431.5,177.2,435.6z M160.1,410.6c-1,0-1.9-0.8-1.9-1.9c0-1,0.9-1.9,1.9-1.9V410.6z M161.6,403.2h-1.5
		c-0.5,0-1,0.1-1.4,0.2c-0.3-0.9-0.5-1.8-0.5-2.7c0-4.8,4-8.7,8.9-8.7h5.1c4.9,0,8.9,3.9,8.9,8.7c0,0.9-0.2,1.8-0.5,2.7
		c-0.5-0.1-0.9-0.2-1.4-0.2h-1.9h-3.4c-2.5,0-5-0.6-7.2-1.7l-0.4-0.2h-0.4C164.2,401.3,162.7,402,161.6,403.2z M179.2,406.9
		c1,0,1.9,0.8,1.9,1.9c0,1-0.9,1.9-1.9,1.9V406.9z M175.4,410.6c0,3.1-2.6,5.6-5.7,5.6c-3.2,0-5.7-2.5-5.7-5.6v-3.7
		c0-0.9,0.7-1.7,1.5-1.8c2.6,1.2,5.5,1.8,8.4,1.8h1.5V410.6z M166.7,419.4c0.9,0.3,1.9,0.5,2.9,0.5c1,0,2-0.2,2.9-0.5
		c0.1,0.2,0.2,0.4,0.3,0.5l-3.3,4.3l-3.3-4.3C166.5,419.8,166.6,419.6,166.7,419.4z M188.4,422.1c-1.1-0.7-2.2-1.2-3.5-1.5l-6.7-1.3
		c-1-0.3-1.7-0.9-2.2-1.7c1-0.9,1.9-2,2.5-3.2h0.8c3.2,0,5.7-2.5,5.7-5.6c0-1.2-0.4-2.3-1-3.2c0.7-1.5,1-3.2,1-4.9
		c0-6.8-5.7-12.4-12.7-12.4h-5.1c-7,0-12.7,5.6-12.7,12.4c0,1.7,0.4,3.3,1,4.9c-0.7,0.9-1,2-1,3.2c0,3.1,2.6,5.6,5.7,5.6h0.8
		c0.6,1.3,1.4,2.4,2.5,3.2c-0.5,0.8-1.2,1.4-2.1,1.7l-6.9,1.4c-3,0.6-5.3,2.5-6.6,4.9c-3.1-4.2-4.9-9.4-4.9-14.9
		c0-14.4,12-26.1,26.7-26.1c14.7,0,26.7,11.7,26.7,26.1c0,2.5-0.4,5-1.1,7.4C192.8,419.1,190.5,420.5,188.4,422.1z M211.6,485
		c-18.9,0-34.3-15-34.3-33.5c0-18.5,15.4-33.5,34.3-33.5c18.9,0,34.3,15,34.3,33.5C245.9,470,230.5,485,211.6,485z"/>
	<path class="st8" d="M239.5,421.2l4.6-0.4c-0.3-0.8-0.7-1.6-1.1-2.4l-4.5,0.6C238.9,419.7,239.2,420.5,239.5,421.2z"/>
	<path class="st8" d="M210.4,390.4c1.6,0,3.1-0.7,4.1-1.8c10.8,5.8,19.2,15.5,23.2,27.1l3.6-1.3c-4.4-12.5-13.6-23.1-25.3-29.3
		c0-0.1,0-0.2,0-0.4c0-3.1-2.5-5.7-5.7-5.7c-3.1,0-5.7,2.5-5.7,5.7S207.3,390.4,210.4,390.4z M210.4,382.8c1,0,1.9,0.8,1.9,1.9
		c0,1-0.8,1.9-1.9,1.9c-1,0-1.9-0.8-1.9-1.9C208.5,383.6,209.3,382.8,210.4,382.8z"/>
	<path class="st8" d="M142.3,440.9l-2.3,0.4c0.2,0.8,0.3,1.6,0.6,2.4l2.3-0.6C142.6,442.4,142.4,441.7,142.3,440.9z"/>
	<path class="st8" d="M170.9,471.8c-1.6,0-3.1,0.7-4.1,1.8c-10.8-5.8-19.2-15.5-23.2-27.1l-3.6,1.3c4.4,12.5,13.6,23.1,25.3,29.3
		c0,0.1,0,0.2,0,0.4c0,3.1,2.5,5.7,5.7,5.7c3.1,0,5.7-2.5,5.7-5.7S174,471.8,170.9,471.8z M170.9,479.3c-1,0-1.9-0.8-1.9-1.9
		c0-1,0.8-1.9,1.9-1.9c1,0,1.9,0.8,1.9,1.9C172.8,478.5,172,479.3,170.9,479.3z"/>
	<path class="st8" d="M201.3,469.9c-0.8,0-1.5-0.3-2-0.8L188,457.7c-0.5-0.5-0.8-1.1-0.9-1.6c-0.2-1,0.1-1.9,0.8-2.6
		c0.6-0.6,1.2-0.8,2-0.8c0.2,0,0.4,0,0.6,0.1c0.5,0.1,1.1,0.4,1.6,0.9l9.3,9.3l24.6-24.7c0.5-0.5,1.1-0.8,1.6-0.9
		c0.2,0,0.4-0.1,0.6-0.1c0.8,0,1.4,0.3,2,0.8c0.7,0.7,1,1.6,0.8,2.6c-0.1,0.5-0.4,1.1-0.9,1.6l-26.6,26.7
		C202.8,469.6,202.1,469.9,201.3,469.9z"/>
</g>
</svg>
