<?xml version="1.0" encoding="utf-8"?>
<!-- Generator: Adobe Illustrator 25.1.0, SVG Export Plug-In . SVG Version: 6.00 Build 0)  -->
<svg version="1.1" id="Layer_1" xmlns="http://www.w3.org/2000/svg" xmlns:xlink="http://www.w3.org/1999/xlink" x="0px" y="0px"
	 viewBox="0 0 162.1 162.1" style="enable-background:new 0 0 162.1 162.1;" xml:space="preserve">
<style type="text/css">
	.st0{fill:url(#SVGID_1_);}
	.st1{fill:url(#SVGID_2_);}
	.st2{fill:url(#SVGID_3_);}
	.st3{fill:url(#SVGID_4_);}
	.st4{fill:url(#SVGID_5_);}
	.st5{fill:#FFFFFF;stroke:#120D0A;stroke-width:0.1;}
	.st6{fill:#FFFFFF;}
	.st7{fill:none;}
	.st8{clip-path:url(#SVGID_7_);}
	.st9{fill-rule:evenodd;clip-rule:evenodd;fill:#FFFFFF;}
</style>
<linearGradient id="SVGID_1_" gradientUnits="userSpaceOnUse" x1="3.639798e-09" y1="81.0077" x2="162.0992" y2="81.0077">
	<stop  offset="0" style="stop-color:#F8A085"/>
	<stop  offset="8.084655e-02" style="stop-color:#F4938A"/>
	<stop  offset="0.2556" style="stop-color:#EE7A91"/>
	<stop  offset="0.434" style="stop-color:#EB6494"/>
	<stop  offset="0.6154" style="stop-color:#E85195"/>
	<stop  offset="0.8017" style="stop-color:#E74495"/>
	<stop  offset="1" style="stop-color:#E63F97"/>
</linearGradient>
<circle class="st0" cx="81" cy="81" r="81"/>
<g>
	<path class="st6" d="M65.9,134.5c-22.8-16-36.4-42.2-36.4-69.9V33.2L81,16.9l51.5,16.2v31.3c0,27.9-13.6,54-36.4,69.9L81,145.1
		L65.9,134.5z M33.7,36.1v28.4c0,26.5,12.9,51.3,34.6,66.4l12.7,8.9l12.7-8.9c21.7-15.1,34.6-39.9,34.6-66.4V36.1L81,21.2L33.7,36.1
		z"/>
	<path class="st6" d="M63.9,52.7v11l7.4-1V52.6c0-3.2,2.6-5.8,5.8-5.8h8c3.2,0,5.8,2.6,5.8,5.8v10.2l7.4,1v-11
		c0-7.3-5.9-13.2-13.2-13.2h-8C69.8,39.4,63.9,45.4,63.9,52.7z"/>
	<path class="st6" d="M81,63.2c-0.3,0-0.4,0-0.7,0l-18.8,2.3c-3,0.4-5.2,2.9-5.2,5.9v22.9c0,3,2.2,5.5,5.2,5.9l18.8,2.3
		c0.1,0,1.1,0,1.4,0l18.8-2.3c3-0.4,5.2-2.9,5.2-5.9V71.4c0-3-2.2-5.5-5.2-5.9l-18.8-2.3C81.5,63.2,81.3,63.2,81,63.2z M85.3,78.5
		c0,1.5-0.8,2.9-2.1,3.6l1.2,8.9h-6.9l1.2-8.9c-1.2-0.7-2.1-2.1-2.1-3.6c0-2.3,1.9-4.3,4.3-4.3C83.4,74.1,85.3,76.1,85.3,78.5z"/>
</g>
</svg>
