<svg id="restaurant" xmlns="http://www.w3.org/2000/svg" width="100" height="100" viewBox="0 0 100 100">
  <defs>
    <style>
      .cls-1 {
        fill: #0f036f;
      }

      .cls-2 {
        fill: #fff;
      }
    </style>
  </defs>
  <circle id="Ellipse_635" data-name="Ellipse 635" class="cls-1" cx="50" cy="50" r="50"/>
  <circle id="Ellipse_636" data-name="Ellipse 636" class="cls-1" cx="33.929" cy="33.929" r="33.929" transform="translate(16.071 16.071)"/>
  <path id="Path_35683" data-name="Path 35683" class="cls-1" d="M23.214,50A50.009,50.009,0,0,1,61.607,1.369a50,50,0,1,0,0,97.262A50.01,50.01,0,0,1,23.214,50Z"/>
  <path id="Path_35684" data-name="Path 35684" class="cls-1" d="M98.807,165.261a49.785,49.785,0,0,1,0-58.166,33.859,33.859,0,0,0,0,58.166Z" transform="translate(-66.215 -86.178)"/>
  <path id="Path_35685" data-name="Path 35685" class="cls-2" d="M172.4,99.169a1.785,1.785,0,0,0-2.525,0l-10.194,10.193a1.914,1.914,0,0,1-2.706,0l-.251-.251a1.914,1.914,0,0,1,0-2.706l10.163-10.163a1.786,1.786,0,1,0-2.525-2.525L154.2,103.88a1.914,1.914,0,0,1-2.706,0h0a1.914,1.914,0,0,1,0-2.706L161.69,90.98a1.786,1.786,0,0,0-2.525-2.525l-10.89,10.889a8.881,8.881,0,0,0-2.738,5.92l-.054,4.653a1.786,1.786,0,0,1-.576,1.293l-33.669,30.983a5.075,5.075,0,1,0,7.177,7.177l30.929-33.61a1.786,1.786,0,0,1,1.328-.577l4.773.037h.108a8.59,8.59,0,0,0,5.961-2.638l10.89-10.89A1.786,1.786,0,0,0,172.4,99.169Z" transform="translate(-88.315 -70.758)"/>
  <path id="Path_35686" data-name="Path 35686" class="cls-1" d="M213.747,228,201.4,239.766l3.183,3.183a7.56,7.56,0,0,0,3.486,1.964L219.3,233.246Z" transform="translate(-162.061 -183.471)"/>
  <path id="Path_35687" data-name="Path 35687" class="cls-2" d="M115.263,110.392l49.6,49.6a5.075,5.075,0,0,1,0,7.177h0a5.075,5.075,0,0,1-7.177,0l-12.042-12.042a4.061,4.061,0,0,1-.822-4.561,2.025,2.025,0,0,0-.312-2.316l-2.03-2.03a2.03,2.03,0,0,0-2.871,0h0a4.06,4.06,0,0,1-5.742,0l-13.7-13.7c-10.174-10.174-9.214-17.919-7.809-21.547A1.777,1.777,0,0,1,115.263,110.392Z" transform="translate(-89.714 -88.407)"/>
</svg>
