<svg xmlns="http://www.w3.org/2000/svg" width="100" height="80.667" viewBox="0 0 100 80.667">
  <defs>
    <style>
      .cls-1 {
        fill: #0f076f;
      }
    </style>
  </defs>
  <g id="noun_Train_179467" transform="translate(-5.5 -13.7)">
    <g id="Group_13166" data-name="Group 13166" transform="translate(5.5 13.7)">
      <g id="Group_13165" data-name="Group 13165">
        <path id="Path_35617" data-name="Path 35617" class="cls-1" d="M16.167,15.589A1.592,1.592,0,0,1,17.611,13.7H49.944A1.614,1.614,0,0,1,51.5,15.367,1.406,1.406,0,0,1,49.944,16.7H43.056l-7.111,7.111H50.056a7.116,7.116,0,0,1,5,1.778,7.786,7.786,0,0,1,2.111,2.889c3.333,6.444,6.889,12.778,11.444,18.333a52.273,52.273,0,0,0,5.444,5.667A26.47,26.47,0,0,0,79.5,56.256c2,1,4.111,1.889,6.111,2.889a156.2,156.2,0,0,0,15.667,5.889,9.78,9.78,0,0,1,3,1.111,2.415,2.415,0,0,1,1.222,1.889V78.478a3.026,3.026,0,0,1-1,2.333,2.447,2.447,0,0,1-1.778.556H15.611a16.068,16.068,0,0,1-6.333-3.778,12.9,12.9,0,0,1-3.667-7.222C5.5,69.144,5.5,68.033,5.5,66.811V49.478a55.145,55.145,0,0,1,1-11.333,27.827,27.827,0,0,1,3.111-8.111A13.42,13.42,0,0,1,15.389,24.7a12.155,12.155,0,0,1,5.222-1H30.722l-7-7H17.611A1.439,1.439,0,0,1,16.167,15.589ZM28.056,16.7l5.333,5.333L38.722,16.7ZM18.278,28.589A4.3,4.3,0,0,0,14.167,31.7c-1,3-2,6.111-3,9.111a2.227,2.227,0,0,0,.444,2.333,3.059,3.059,0,0,0,2.222.556H46.389a3.222,3.222,0,0,0,2-.556,2.554,2.554,0,0,0,.889-2.444c-.333-3-.778-6.111-1.222-9.111a3.428,3.428,0,0,0-3.667-3C35.722,28.589,27.056,28.7,18.278,28.589ZM62.833,44.811v4.111c.111,4.889.222,9.778.333,14.778a27.588,27.588,0,0,0,6.111,4c0-1.333-.111-2.778-.111-4.111-.111-1.444,0-3-.111-4.444,0-1.222,0-2.333-.111-3.556,0-1.111,0-2.333-.111-3.444C66.833,49.811,64.722,47.367,62.833,44.811Zm8.333,17.111c.111,1.333,0,2.778.111,4.111v2.333c0,.222.222.222.333.222a49.75,49.75,0,0,0,5.778,1.778c-.111-1.222,0-2.333-.111-3.556-.111-1.333,0-2.667-.111-4.111,0-1.333,0-2.778-.111-4.111a35.579,35.579,0,0,1-6.111-4.667C71.167,56.7,71.167,59.367,71.167,61.922ZM14.833,57.589a4.611,4.611,0,0,0-3.556,3.889,4.729,4.729,0,0,0,2.444,4.667,4.832,4.832,0,0,0,4.111.111,5.033,5.033,0,0,0,2.556-2.889,4.794,4.794,0,0,0-1.556-5A5.185,5.185,0,0,0,14.833,57.589Zm30.222,0A4.505,4.505,0,0,0,41.722,60.7a4.612,4.612,0,0,0,.556,4,4.744,4.744,0,0,0,5.333,1.778A4.662,4.662,0,0,0,50.5,63.589a4.713,4.713,0,0,0-1.556-5.111A4.507,4.507,0,0,0,45.056,57.589ZM79.5,71.033c2,.444,4,.889,6.111,1.222V70.589c-.111-1.333,0-2.667-.111-4,0-1.222,0-2.444-.111-3.778-2.111-.889-4.111-1.889-6.111-2.889C79.389,63.589,79.389,67.367,79.5,71.033ZM87.389,63.7c0,3,.111,6,.111,8.889,1.667.333,3.333.556,5.111.778,0-2.556-.111-5.222-.111-7.778C90.722,65.033,89.056,64.367,87.389,63.7ZM94.5,66.367c0,2.222.111,4.333.111,6.556a1.891,1.891,0,0,0,.111.778c1.333.222,2.667.333,4,.444,0-2.111-.111-4.333-.111-6.444C97.278,67.256,95.944,66.811,94.5,66.367Zm6.111,2v1.778c0,1.444,0,2.778.111,4.222.667.111,1.333.111,2,.222V73.033c-.111-1.333,0-2.667-.111-4Z" transform="translate(-5.5 -13.7)"/>
      </g>
      <path id="Path_35618" data-name="Path 35618" class="cls-1" d="M13.522,77.3H25.633v3H42.744v-3H105.3v3.778c0,.222-.222.222-.444.222-18,2-36.111,4.111-54.111,6H6.3V80.189h7.111A24.164,24.164,0,0,0,13.522,77.3Z" transform="translate(-5.411 -6.633)"/>
    </g>
  </g>
</svg>
