<svg xmlns="http://www.w3.org/2000/svg" width="100" height="78.333" viewBox="0 0 100 78.333">
  <defs>
    <style>
      .cls-1 {
        fill: #0f036f;
      }
    </style>
  </defs>
  <g id="noun_Travel_1062690" transform="translate(0 -5.2)">
    <g id="Group_13182" data-name="Group 13182" transform="translate(0 5.2)">
      <path id="Path_35679" data-name="Path 35679" class="cls-1" d="M58.35,7.075A2.95,2.95,0,0,0,55.433,5.2H23.767A3.267,3.267,0,0,0,20.85,7.075L16.683,17.283H12.517l8.542,8.542,10-1.875a1.68,1.68,0,0,1,1.875.625l16.25,16.25a2.014,2.014,0,0,1,0,2.917L36.058,56.867a2.014,2.014,0,0,1-2.917,0l-16.25-16.25a2.908,2.908,0,0,1-.625-1.875l1.875-10L9.6,20.2V83.533h60V17.283H62.517ZM23.558,17.283l2.5-5.833h27.5l2.5,5.833Z" transform="translate(10.4 -5.2)"/>
      <path id="Path_35680" data-name="Path 35680" class="cls-1" d="M38.858,30.258,24.9,16.3l-8.542,1.458L14.9,26.3,28.858,40.258Z" transform="translate(16.142 6.825)"/>
      <path id="Path_35681" data-name="Path 35681" class="cls-1" d="M49.983,11H40.4V77.25h9.583A6.138,6.138,0,0,0,56.233,71V17.25A6.138,6.138,0,0,0,49.983,11Z" transform="translate(43.767 1.083)"/>
      <path id="Path_35682" data-name="Path 35682" class="cls-1" d="M0,17.25V71a6.138,6.138,0,0,0,6.25,6.25h9.583V11H6.25A6.138,6.138,0,0,0,0,17.25Z" transform="translate(0 1.083)"/>
    </g>
  </g>
</svg>
