<svg xmlns="http://www.w3.org/2000/svg" width="100" height="64.649" viewBox="0 0 100 64.649">
  <defs>
    <style>
      .cls-1 {
        fill: #0f076f;
      }
    </style>
  </defs>
  <g id="video-game" transform="translate(-0.003 -181.005)">
    <path id="Path_35872" data-name="Path 35872" class="cls-1" d="M8.99,245.654c4.787,0,10.457-3.553,17.344-10.866a21.418,21.418,0,0,1,15.362-6.712H58.311a21.417,21.417,0,0,1,15.362,6.712c6.887,7.313,12.557,10.866,17.344,10.866,3.153,0,5.719-1.808,7.221-5.09a24.078,24.078,0,0,0,1.765-9.9C100,213.679,89.013,181,72.19,181a14.732,14.732,0,0,0-9.547,3.047,14.523,14.523,0,0,1-6.288,2.72l-7.534.092H44.287a14.509,14.509,0,0,1-6.924-2.812,14.732,14.732,0,0,0-9.547-3.047C10.993,181.005,0,213.679,0,230.665c0,13.527,6.306,14.989,8.987,14.989ZM73.44,216.161a2.93,2.93,0,1,1,2.93-2.93A2.93,2.93,0,0,1,73.44,216.161ZM79.3,204.443a2.93,2.93,0,1,1-2.93,2.93A2.93,2.93,0,0,1,79.3,204.443Zm-5.859-5.859a2.93,2.93,0,1,1-2.93,2.93A2.93,2.93,0,0,1,73.44,198.583Zm-5.859,5.859a2.93,2.93,0,1,1-2.93,2.93A2.93,2.93,0,0,1,67.581,204.443Zm-23.437,0H55.862a2.93,2.93,0,0,1,0,5.859H44.144a2.93,2.93,0,1,1,0-5.859Zm-23.437,0h2.93v-2.93a2.93,2.93,0,1,1,5.859,0v2.93h2.93a2.93,2.93,0,0,1,0,5.859H29.5v2.93a2.93,2.93,0,1,1-5.859,0V210.3h-2.93a2.93,2.93,0,0,1,0-5.859Z" transform="translate(0 0)"/>
  </g>
</svg>
