<svg xmlns="http://www.w3.org/2000/svg" width="92.852" height="100" viewBox="0 0 92.852 100">
  <defs>
    <style>
      .cls-1 {
        fill: #0f036f;
        fill-rule: evenodd;
      }
    </style>
  </defs>
  <g id="noun_Fuel_3713029" transform="translate(342.982 454.131)">
    <g id="Group_7882" data-name="Group 7882" transform="translate(-342.982 -454.131)">
      <path id="Path_19525" data-name="Path 19525" class="cls-1" d="M53.143,108.056H103.13V57.179h5.221a1.355,1.355,0,0,1,.914.292.833.833,0,0,1,.17.609V98.421c0,11.146,16.711,11.4,16.711-.722,0-20.786-.071-41.535-.071-62.248l11.84-14.471a2.3,2.3,0,0,0-2.925-3.558L117.083,32.206a2.3,2.3,0,0,0-.76,2.379V46.644a1.39,1.39,0,0,0,1.386,1.386h2.658V97.7c0,4.453-5.155,4.26-5.155.722V58.08a6.385,6.385,0,0,0-1.974-4.785A7.182,7.182,0,0,0,108.35,51.4H103.13V34.377a10.432,10.432,0,0,0-10.4-10.4H63.555A10.442,10.442,0,0,0,53.143,34.387Zm-7.223,2.818h64.433v5.994H45.92ZM60.079,34.161H96.2V49.784H60.079ZM70.444,87.3H85.829v4.406H70.444Zm0-11.076H85.829v4.406H70.444Z" transform="translate(-45.92 -16.869)"/>
    </g>
  </g>
</svg>
