<svg xmlns="http://www.w3.org/2000/svg" width="100" height="100" viewBox="0 0 100 100">
  <defs>
    <style>
      .cls-1 {
        fill: #0f036f;
      }
    </style>
  </defs>
  <g id="noun_Store_2091706" transform="translate(-5 -5)">
    <rect id="Rectangle_3024" data-name="Rectangle 3024" class="cls-1" width="100" height="4" transform="translate(5 101)"/>
    <path id="Path_35695" data-name="Path 35695" class="cls-1" d="M91.821,5H16.591a4.445,4.445,0,0,0-4.444,4.444H96.266A4.445,4.445,0,0,0,91.821,5Z" transform="translate(0.794)"/>
    <path id="Path_35696" data-name="Path 35696" class="cls-1" d="M104.192,33.006l-6.568-17.46A4.386,4.386,0,0,0,93.425,13H16.575a4.386,4.386,0,0,0-4.2,2.546L5.808,33.006A12.466,12.466,0,0,0,5,37.4v2.09c0,7.613,20,7.613,20,0,0,7.613,20,7.613,20,0,0,7.613,20,7.613,20,0,0,7.613,20,7.613,20,0,0,7.613,20,7.613,20,0V37.4A12.466,12.466,0,0,0,104.192,33.006ZM30.74,19.5l-2.615,13.86a1.929,1.929,0,0,1-2.22,1.335,1.672,1.672,0,0,1-1.623-1.825L26.9,19.013a1.929,1.929,0,0,1,2.22-1.335A1.672,1.672,0,0,1,30.74,19.5Zm16.6,13.681A1.841,1.841,0,0,1,45.3,34.7a1.754,1.754,0,0,1-1.841-1.679l.869-13.827a1.841,1.841,0,0,1,2.042-1.514,1.754,1.754,0,0,1,1.841,1.679ZM64.7,34.7a1.841,1.841,0,0,1-2.042-1.514l-.869-13.827a1.754,1.754,0,0,1,1.841-1.679,1.841,1.841,0,0,1,2.042,1.514l.869,13.827A1.754,1.754,0,0,1,64.7,34.7Zm19.4,0a1.929,1.929,0,0,1-2.22-1.335L79.26,19.5a1.672,1.672,0,0,1,1.623-1.825A1.929,1.929,0,0,1,83.1,19.013l2.615,13.86A1.672,1.672,0,0,1,84.095,34.7Z" transform="translate(0 0.888)"/>
    <path id="Path_35697" data-name="Path 35697" class="cls-1" d="M95.459,91.879a1.758,1.758,0,0,0,1.9-1.564V45.33a24.888,24.888,0,0,1-3.056.184,19.561,19.561,0,0,1-10-2.422,19.561,19.561,0,0,1-10,2.422,20.782,20.782,0,0,1-9.21-1.972q-.417-.212-.8-.442a19.578,19.578,0,0,1-9.987,2.414,19.564,19.564,0,0,1-10-2.422,19.562,19.562,0,0,1-10,2.422,19.561,19.561,0,0,1-10-2.422,19.562,19.562,0,0,1-10,2.422,24.886,24.886,0,0,1-3.056-.184V90.315a1.758,1.758,0,0,0,1.9,1.564h8.223V56.912a2.5,2.5,0,0,1,2.7-2.224H39.532a2.5,2.5,0,0,1,2.7,2.224V91.879ZM54.574,59.912a2.5,2.5,0,0,1,2.7-2.224h27.04a2.5,2.5,0,0,1,2.7,2.224V72.2a2.5,2.5,0,0,1-2.7,2.224H57.279a2.5,2.5,0,0,1-2.7-2.224Z" transform="translate(0.694 4.232)"/>
  </g>
</svg>
