<svg xmlns="http://www.w3.org/2000/svg" width="100" height="71.879" viewBox="0 0 100 71.879">
  <defs>
    <style>
      .cls-1 {
        fill: #0f036f;
      }
    </style>
  </defs>
  <g id="graduation-hat" transform="translate(0 -71.987)">
    <path id="Path_35709" data-name="Path 35709" class="cls-1" d="M98.117,92.558,51.239,72.245a3.122,3.122,0,0,0-2.485,0L1.877,92.558a3.128,3.128,0,0,0,0,5.735l46.877,20.314a3.121,3.121,0,0,0,2.485,0l33.135-14.358v33.279a3.183,3.183,0,0,0,2.976,3.209,3.124,3.124,0,0,0,3.275-3.122v-34.5a.976.976,0,0,0-.851-.968L49.6,96.963a3.125,3.125,0,0,1,.578-6.219c.14.008,44.676,5.755,44.644,5.751a2.356,2.356,0,0,1,1.845,1.362.986.986,0,0,0,1.317.5,3.134,3.134,0,0,0,.136-5.8Z" transform="translate(0)"/>
    <path id="Path_35710" data-name="Path 35710" class="cls-1" d="M123.495,292.994,97.337,281.659a.977.977,0,0,0-1.365.9v11.212c0,10.514,13.727,18.751,31.252,18.751s31.252-8.237,31.252-18.751V282.555a.977.977,0,0,0-1.365-.9l-26.16,11.335A9.363,9.363,0,0,1,123.495,292.994Z" transform="translate(-77.227 -168.652)"/>
  </g>
</svg>
