<svg xmlns="http://www.w3.org/2000/svg" width="100" height="100" viewBox="0 0 100 100">
  <defs>
    <style>
      .cls-1 {
        fill: #0f036f;
      }
    </style>
  </defs>
  <g id="noun_Hospital_2573595" transform="translate(-2 -2)">
    <g id="hospital_building" data-name="hospital building" transform="translate(2 2)">
      <path id="Path_35711" data-name="Path 35711" class="cls-1" d="M98.429,30.571H80.571v-25A3.571,3.571,0,0,0,77,2H27a3.571,3.571,0,0,0-3.571,3.571v25H5.571A3.571,3.571,0,0,0,2,34.143V98.429A3.571,3.571,0,0,0,5.571,102H37.714V62.714a3.571,3.571,0,0,1,3.571-3.571H62.714a3.571,3.571,0,0,1,3.571,3.571V102H98.429A3.571,3.571,0,0,0,102,98.429V34.143A3.571,3.571,0,0,0,98.429,30.571ZM9.143,44.857H23.429V52H9.143Zm0,17.857H23.429v7.143H9.143Zm0,17.857H23.429v7.143H9.143ZM62.714,34.143H55.571v7.143a3.571,3.571,0,0,1-7.143,0V34.143H41.286a3.571,3.571,0,0,1,0-7.143h7.143V19.857a3.571,3.571,0,0,1,7.143,0V27h7.143a3.571,3.571,0,1,1,0,7.143ZM94.857,87.714H80.571V80.571H94.857Zm0-17.857H80.571V62.714H94.857Zm0-17.857H80.571V44.857H94.857Zm-50,14.286H59.143V102H44.857Z" transform="translate(-2 -2)"/>
    </g>
  </g>
</svg>
