<svg xmlns="http://www.w3.org/2000/svg" width="100" height="95.209" viewBox="0 0 100 95.209">
  <defs>
    <style>
      .cls-1 {
        fill: #0f076f;
      }
    </style>
  </defs>
  <path id="Path_35871" data-name="Path 35871" class="cls-1" d="M83.27,55.755a1.771,1.771,0,0,1-.783-.184,1.751,1.751,0,0,1-.817-.852l-1.308-2.927L73.383,67.4a1.75,1.75,0,0,1-3.2,0L60.45,45.619l-4.068,9.1a1.749,1.749,0,0,1-1.6,1.036H42.007a1.751,1.751,0,0,1,0-3.5H53.65l5.2-11.641a1.75,1.75,0,0,1,3.2,0l9.738,21.779,6.979-15.6a1.75,1.75,0,0,1,3.2,0L84.4,52.256h17.165c3.376-6,5.5-11.54,5.5-15.97a26.091,26.091,0,0,0-50-10.451,26.091,26.091,0,0,0-50,10.451c0,21.508,49.9,69.113,49.9,69.113S85.492,78.3,99.5,55.757H83.27Z" transform="translate(-7.074 -10.19)"/>
</svg>
