<?xml version="1.0" encoding="utf-8"?>
<!-- Generator: Adobe Illustrator 25.1.0, SVG Export Plug-In . SVG Version: 6.00 Build 0)  -->
<svg version="1.1" id="Layer_1" xmlns="http://www.w3.org/2000/svg" xmlns:xlink="http://www.w3.org/1999/xlink" x="0px" y="0px"
	 viewBox="0 0 660 280" style="enable-background:new 0 0 660 280;" xml:space="preserve">
<style type="text/css">
	.st0{fill-rule:evenodd;clip-rule:evenodd;fill:#FFFFFF;}
	.st1{fill:#FFFFFF;}
</style>
<g>
	<path class="st0" d="M278,145.1c-7.2-2.9-14-6.1-20.5-9.7c-6.5-3.5-12.5-7.4-18.1-11.4c5.8,3.8,12,7.3,18.5,10.6
		c6.5,3.3,13.4,6.3,20.7,8.9c7.3,2.7,14.8,4.9,22.6,6.5c3.7,0.8,7.4,1.5,11.2,2c-6.5-2.1-12.9-4.3-19.1-6.9
		c-8.7-3.4-17.2-7.1-25.3-11.1c-16.2-8-31-16.6-44.4-25.7c13.8,8.5,28.9,16.5,45.2,24.1c8.1,3.8,16.5,7.3,25.2,10.7
		c6.2,2.3,12.5,4.5,18.9,6.5c-18.9-10-37.1-19.8-54.7-29.3c-17.5-9.5-34.1-18.6-49.9-27.4c16,8.2,32.9,16.8,50.6,26
		c17.7,9.1,36,18.7,54.8,28.7c-5.1-4.2-10.3-8.2-15.6-12c-7.4-5.2-14.8-10-22.2-14.5c-14.9-8.9-29.5-16.6-43.8-22.9
		c14.5,5.7,29.4,12.8,44.6,21.5c7.5,4.4,15,9.1,22.5,14.2c5,3.5,10,7.2,14.8,11.1c-2.8-3.1-5.7-6.1-8.6-8.9
		c-5.6-5.3-11.4-10-17.4-14.3c-5.9-4.3-12-8.2-18.2-11.7c-6.2-3.4-12.3-6.5-18.4-9.1c6.2,2.3,12.5,5.1,18.8,8.3
		c6.3,3.2,12.6,6.9,18.7,11.1c6.2,4.2,12.1,9,17.8,14.2c3.7,3.4,7.2,7,10.6,10.9c-4.3-7.2-10.4-14.4-18.4-21.5
		c-8-7.2-17.5-13.8-28.5-19.9c-8.8-4.7-17.4-8.6-26.1-11.6c-8.6-2.9-16.9-4.9-24.7-6c-7.8-1-14.9-1.1-21.3-0.3
		c2.1,5.5,5.4,11.2,10,17c4.7,5.8,10.5,11.5,17.3,17.1c6.9,5.5,14.7,10.8,23.4,15.6c7.8,4.2,15.5,7.7,23.2,10.6
		c7.7,2.8,15.2,4.9,22.3,6.2c7.2,1.3,13.9,1.9,20,1.6c-4.7-0.6-9.4-1.4-14.1-2.4C292.8,150.4,285.3,148,278,145.1 M306.8,40.8
		c-1,7.1-0.8,14.6,0.6,22.5c0.9,4.9,2.3,9.7,4.3,14.5c0.1,0,0.1,0,0.2,0.1c-1-7.1-1.3-14-1.1-20.8c0.3-9.1,1.3-17.6,3.2-25.5
		c-1.1,8-1.7,16.5-1.5,25.5c0.1,7.3,0.7,14.7,1.9,22.3c0.6-10.5,1.3-20.7,2.1-30.5c0.7-9.8,1.5-19.1,2.3-27.9
		c-0.2,8.4-0.4,17.3-0.8,26.7c-0.3,9.3-0.7,19-1.2,29c1.9-6.6,3.4-13.1,4.2-19.6c1.1-8.5,1.5-16.5,1.2-24.2c1,7.6,1.1,15.7,0.4,24.4
		c-0.6,6-1.7,12-3.3,18.2c2-3.9,3.6-7.8,4.8-11.8c2.2-7.6,3.1-14.9,2.7-22c0.8,5,0.9,10.2,0.2,15.6c-0.7,5.5-2.2,10.9-4.6,16.3
		c2.7-3.5,4.9-7.5,6.6-12c1.7-4.5,2.6-9.2,2.9-14.2c0.3-7.1-0.8-13.5-3.3-19.2c-2.5-5.7-5.9-10.1-10.4-13.5
		c-4.8,3.5-8.7,8.2-11.7,14.1c-3,5.8-4.7,12.3-5.1,19.4c-0.2,4.9,0.2,9.4,1.4,13.6c1.1,4.2,2.8,8,5,11.3c-1.6-5.6-2.5-11.2-2.6-16.7
		C305.2,50.8,305.7,45.7,306.8,40.8 M327.3,80.2c3.4-7.6,7.4-14.5,11.9-20.8c4.5-6.2,9.4-11.6,14.5-16.1c5.1-4.5,10.3-7.9,15.5-10.3
		c2,4.9,3.1,10.6,3.3,16.9c0.3,6.4-0.3,13.2-1.9,20.5c-1.5,7.3-4,14.7-7.5,22.3c-4.4,9.8-9.7,18.4-15.8,25.8
		c-6.1,7.4-12.6,13.3-19.3,17.7c2.9-2.7,5.5-5.5,8.1-8.4c4.4-5.1,8.3-10.4,11.6-15.9c3.3-5.6,6.2-11.1,8.6-16.7
		c2.3-5.7,4.3-11.2,5.7-16.7c-1.8,5.4-4,10.9-6.6,16.3c-2.6,5.5-5.7,10.9-9.1,16.2c-3.5,5.4-7.4,10.5-11.8,15.4
		c-2.2,2.5-4.6,4.9-7,7.3c3-4.2,5.9-8.4,8.5-12.7c4.1-6.6,7.7-13.3,11.1-20.1c6.5-13.5,11.7-26.7,15.5-39.5
		c-4.5,12.6-10.1,25.5-17,38.8c-3.4,6.6-7.2,13.1-11.3,19.6c-2.9,4.6-6.1,9.2-9.4,13.6c7.4-16.7,14.4-32.9,21.2-48.5
		c6.7-15.6,13-30.4,19-44.6c-6.4,13.7-13.1,28.1-20.1,43.3c-6.9,15.2-14,31-21.4,47.4c1.3-4.9,2.6-9.7,4.1-14.4
		c2.4-7.6,5-15,7.8-22.1c5.7-14.3,11.7-27.6,18.2-39.8c-7.1,11.9-13.7,25-19.7,39.2c-3,7.1-5.7,14.5-8.2,22.1
		c-1.9,5.6-3.6,11.4-5.1,17.3c0.1-3.5,0.3-6.9,0.7-10.4c0.7-6.8,2-13.4,3.7-19.8c1.7-6.4,3.8-12.5,6.3-18.4
		c2.4-5.9,5.1-11.4,8.1-16.6c-3.3,5-6.2,10.4-8.9,16.1c-2.7,5.8-5.1,11.9-7,18.3c-1.9,6.5-3.3,13.2-4.1,20.2
		c-0.3,2.6-0.6,5.3-0.7,8.1c-1.2-7.1-1.1-15,0.3-23.7C320.4,98.6,323.2,89.5,327.3,80.2"/>
	<path class="st0" d="M226.7,81.1c2.9,1.8,5.8,3.2,8.8,4c3.1,0.9,6.1,1.2,9.1,1.1c-2.7-0.3-5.3-1-7.7-2c-2.5-1-4.7-2.1-6.9-3.5
		c-2.1-1.4-3.9-3-5.6-4.6c1.8,1.5,3.8,2.8,5.9,4c2.2,1.2,4.5,2.2,6.9,3c3.3,1.1,6.8,1.7,10.5,1.8c-5.1-1.5-9.8-3.6-14.1-6.1
		c-5.3-3.2-10-6.8-13.9-10.6c4.2,3.5,9.1,6.8,14.5,9.6c4.6,2.5,9.5,4.4,14.8,5.9c-11.9-7.6-22.7-14.8-32.4-21.5
		c9.4,5.4,19.5,11.6,30.4,18.4c-3.1-3.1-6.3-5.9-9.5-8.4c-4.5-3.5-9-6.5-13.4-9.2c4.7,2.2,9.4,4.9,14.1,8.2c3.3,2.3,6.4,4.9,9.4,7.7
		c-1.5-2.2-3.1-4.3-5-6.2c-3.5-3.7-7.4-6.6-11.4-8.9c3.8,1.7,7.5,4,11.1,7c3.6,3.1,6.6,6.8,9,11.2c-0.6-3.3-1.9-6.4-3.9-9.4
		c-2.1-3-4.8-5.7-8.3-8c-4.1-2.6-8.3-4.3-12.6-4.9c-4.4-0.7-8.5-0.4-12.4,0.9c0.1,3.7,1.1,7.4,3.3,11
		C219.6,75.3,222.7,78.5,226.7,81.1 M393.3,58.6c-5.1,4.7-9.6,10.4-13.5,16.9c-2.3,4-4.3,8.2-6,12.7c3.7-5.5,7.7-10.7,11.9-15.4
		c5.8-6.5,11.9-12.2,18.1-17c-5.7,5.3-11.4,11.4-16.9,18.1c-4.2,5.1-8.2,10.6-11.9,16.6c6.9-7.3,13.5-14.2,20-20.9
		c6.5-6.7,12.8-13,18.8-18.9c-5.3,6.1-10.9,12.4-16.8,19c-5.9,6.6-12.1,13.4-18.5,20.3c5.1-3.5,9.8-7.3,14.2-11.4
		c6.1-5.6,11.4-11.3,16-17.2c-4.1,6.3-9,12.4-14.8,18.4c-3.9,3.9-8.1,7.5-12.7,11c3.4-1.7,6.7-3.5,9.7-5.6
		c6.2-4.3,11.4-9.1,15.5-14.6c-3,4.9-6.9,9.5-11.8,13.6c-4.8,4.2-10.4,7.6-16.7,10.2c4.5-0.7,9-2.3,13.5-4.7
		c4.5-2.5,8.7-5.7,12.5-9.8c4.6-5,8-10.4,10-16c2-5.6,2.6-10.8,1.8-15.7c-5.3-0.1-10.8,1.1-16.4,3.6c-5.6,2.6-10.8,6.3-15.4,11.3
		c-3.6,3.8-6.4,7.9-8.4,12.1c-2,4.2-3.2,8.4-3.5,12.4c2.3-6.2,5.4-11.7,9.2-16.6C384.8,66.1,388.9,61.9,393.3,58.6 M383.5,100.3
		c-11.7,6.6-21.9,13.7-30.6,21.5c-8.7,7.7-15.5,15.5-20.3,23.3c3.1-3.4,6.3-6.7,9.7-9.8c6.5-5.9,13.2-11.2,20.1-15.9
		c6.9-4.8,13.9-8.9,21-12.5c7.1-3.7,14.2-6.8,21.2-9.4c-6.9,3-13.8,6.4-20.7,10.2c-7,3.9-13.8,8.2-20.6,13
		c-6.8,4.9-13.3,10.2-19.6,16.1c-2.9,2.8-5.8,5.7-8.7,8.8c5.9-4.5,11.8-8.7,17.8-12.6c8.4-5.6,16.7-10.8,25.1-15.5
		c16.9-9.5,33.3-17.6,49.2-24.2c-15.7,7.3-31.8,15.8-48.4,25.7c-8.2,4.9-16.5,10.1-24.8,15.8c-5.5,3.8-11.1,7.7-16.6,11.9
		c20-10.8,39.4-21.2,58.1-31.1c18.7-10,36.6-19.5,53.6-28.3c-16.8,9.5-34.6,19.4-53.3,29.9c-18.7,10.4-38.1,21-58.3,32
		c6.8-2.2,13.3-4.6,19.7-7.1c8.9-3.6,17.5-7.4,25.7-11.4c16.6-8.1,31.9-16.6,45.8-25.6c-13.6,9.5-28.6,18.5-45,27
		c-8.2,4.2-16.8,8.1-25.7,11.8c-6.2,2.6-12.7,4.9-19.3,7.1c4.8-0.6,9.5-1.5,14.1-2.7c8-1.9,15.6-4.3,23-7.1c7.3-2.9,14.3-6,20.9-9.5
		c6.7-3.4,13-7.1,18.9-11.1c-5.7,4.2-11.8,8.2-18.4,11.9c-6.6,3.8-13.5,7.2-20.9,10.2c-7.4,3-15.1,5.6-23.2,7.6
		c-7.4,1.9-15,3.1-23,3.7c6.3,0.7,13.4,0.4,21.3-0.9c7.8-1.3,16.1-3.4,24.8-6.5c8.7-3.1,17.5-7.2,26.5-12.1
		c9.3-5.2,17.6-10.8,25.1-16.7c7.4-6,13.8-12.1,19-18.4c5.1-6.2,9-12.3,11.5-18.2c-6.3-1-13.6-0.9-21.6,0.3
		c-8.1,1.1-16.6,3.3-25.7,6.4C402,91,392.8,95.2,383.5,100.3 M265.4,90.7c-4.5-5.5-8.1-11.1-10.8-16.9c-2.7-5.8-4.5-11.4-5.6-17
		c-1-5.6-1-10.8-0.2-15.7c5.1,0.3,10.3,1.6,15.7,3.9c5.4,2.2,10.6,5.3,15.8,9.2c5.2,3.9,10,8.5,14.5,14c6,7.5,10.4,15.2,13.3,23
		c2.9,7.8,4.1,15.3,3.7,22.2c-1-4.2-2.3-8.2-3.9-12c-2.2-5.4-4.8-10.4-7.7-15.1c-2.9-4.7-6.1-9-9.5-13c-3.4-4-7-7.6-10.6-10.9
		c3.4,3.5,6.7,7.4,9.9,11.5c3.2,4.1,6.2,8.6,8.9,13.3c2.7,4.7,5.1,9.7,7.2,15c0.8,2.1,1.6,4.3,2.3,6.6c-1.8-3.4-3.7-6.8-5.7-10
		c-3.5-5.7-7.2-11.1-11.1-16.2c-7.8-10.3-16-19.4-24.4-27.3c7.9,8.4,15.6,17.8,23,28.2c3.7,5.2,7.3,10.7,10.6,16.4
		c2.2,3.6,4.2,7.4,6.2,11.2c-9.8-12-19.3-23.5-28.5-34.5c-9.2-11-18-21.5-26.5-31.4c8,10.4,16.5,21.2,25.4,32.4
		c9,11.3,18.3,23,28.1,35c-3.5-2.8-6.8-5.7-10-8.6c-5-4.7-9.8-9.5-14.3-14.3c-9-9.7-17-19.5-23.9-29.2c6.3,10.1,13.9,20.2,22.7,30.3
		c4.4,5,9.1,9.9,14.2,14.7c3.5,3.3,7.2,6.5,11.1,9.6c-2.5-1.2-4.9-2.5-7.3-3.9c-5.2-3.1-10-6.5-14.5-10.3
		c-4.5-3.8-8.5-7.7-12.2-11.9c-3.7-4.2-7-8.4-9.9-12.8c2.6,4.6,5.7,9,9.2,13.4c3.5,4.4,7.4,8.6,11.8,12.5c4.3,4,9.1,7.6,14.4,10.9
		c1.9,1.1,3.8,2.3,5.8,3.3c-6.5-1.8-13-4.8-19.4-9.2C276.7,102.8,270.8,97.3,265.4,90.7"/>
	<path class="st1" d="M58.8,221.2c2.7-2.1,4.5-5.1,5.4-9h-6c-0.4,2-1.4,3.7-3.1,5c-1.7,1.3-3.7,1.9-6,1.9c-3.7,0-6.3-1.1-8-3.4
		c-1.4-1.9-2.2-4.6-2.4-8.2h26.2l0.1-2.1c0-5.7-1.4-10.3-4.3-13.7c-2.9-3.5-6.7-5.2-11.4-5.2c-5.2,0-9.3,1.8-12.4,5.3
		c-3.1,3.6-4.6,8.4-4.6,14.4c0,5.7,1.5,10.1,4.4,13.3c2.9,3.2,6.9,4.8,12,4.8C52.6,224.3,56.1,223.2,58.8,221.2L58.8,221.2z
		 M38.5,202.6c0.3-3,1.2-5.5,2.7-7.3c1.9-2.4,4.4-3.6,7.6-3.6c3.2,0,5.5,1,7.2,3.1c1.5,1.9,2.3,4.4,2.5,7.8H38.5L38.5,202.6z
		 M72.8,223.3h3h3v-19.2c0-3.6,0.9-6.4,2.7-8.4c1.8-2,4.3-2.9,7.6-2.9l1.2,0v-6.2c-0.6-0.2-1.2-0.3-1.7-0.3c-3.3,0-6.1,1.5-8.4,4.6
		c-0.6,0.8-1.1,1.7-1.6,2.6v-6.1h-2.9h-2.8V223.3L72.8,223.3z M109.4,224.3c5,0,9-1.7,12.1-5.2c3.1-3.5,4.6-8.1,4.6-13.7
		c0-5.7-1.5-10.3-4.6-13.7c-3.1-3.5-7.1-5.2-12.1-5.2c-5,0-9,1.7-12,5.2c-3.1,3.5-4.6,8.1-4.6,13.7c0,5.7,1.5,10.2,4.6,13.7
		C100.5,222.5,104.5,224.3,109.4,224.3L109.4,224.3L109.4,224.3z M109.4,219.1c-3.2,0-5.7-1.2-7.6-3.7c-1.9-2.5-2.8-5.8-2.8-10
		c0-4.2,0.9-7.5,2.8-10c1.9-2.5,4.4-3.7,7.6-3.7c3.2,0,5.7,1.2,7.6,3.7c1.9,2.5,2.8,5.8,2.8,10c0,4.2-0.9,7.5-2.8,10
		C115.1,217.8,112.6,219.1,109.4,219.1L109.4,219.1L109.4,219.1z M139.2,187.4h-3h-3v24.6c0,4.1,1,7.1,3,9.1c2,2,5.1,3,9.1,3
		c3.9,0,7.1-1.5,9.7-4.6c0.5-0.6,0.9-1.2,1.3-1.8v5.5h2.9h2.8v-35.9h-3h-3v19.1c0,3.8-0.8,6.9-2.5,9.1c-1.7,2.2-4,3.4-6.9,3.4
		c-2.6,0-4.5-0.7-5.7-2c-1.2-1.3-1.7-3.5-1.7-6.5V187.4L139.2,187.4z M184.4,218.6h-2.1c-1.1,0-1.9-0.2-2.6-0.7s-1-1.1-1-1.9v-23.6
		h5.7v-4.9h-5.7v-10.1h-6v10.1h-5v4.9h5V216c0,2.8,0.5,4.8,1.6,6c1.1,1.2,2.9,1.7,5.6,1.7c0.9,0,2.4-0.2,4.5-0.5V218.6L184.4,218.6z
		 M215.2,221.2c2.7-2.1,4.5-5.1,5.4-9h-6c-0.4,2-1.4,3.7-3.1,5c-1.7,1.3-3.7,1.9-6,1.9c-3.7,0-6.3-1.1-8-3.4
		c-1.4-1.9-2.2-4.6-2.4-8.2h26.2l0.1-2.1c0-5.7-1.4-10.3-4.3-13.7c-2.9-3.5-6.7-5.2-11.4-5.2c-5.2,0-9.3,1.8-12.4,5.3
		c-3.1,3.6-4.6,8.4-4.6,14.4c0,5.7,1.5,10.1,4.4,13.3c2.9,3.2,6.9,4.8,12,4.8C209.1,224.3,212.5,223.2,215.2,221.2L215.2,221.2z
		 M195,202.6c0.3-3,1.2-5.5,2.7-7.3c1.9-2.4,4.4-3.6,7.6-3.6c3.2,0,5.5,1,7.2,3.1c1.5,1.9,2.3,4.4,2.5,7.8H195L195,202.6z
		 M260.7,218.6h-2.1c-1.1,0-1.9-0.2-2.6-0.7s-1-1.1-1-1.9v-23.6h5.7v-4.9H255v-10.1h-6v10.1h-5v4.9h5V216c0,2.8,0.5,4.8,1.6,6
		c1.1,1.2,2.9,1.7,5.6,1.7c0.9,0,2.4-0.2,4.5-0.5V218.6L260.7,218.6z M291.5,221.2c2.7-2.1,4.5-5.1,5.4-9h-6c-0.4,2-1.4,3.7-3.1,5
		c-1.7,1.3-3.7,1.9-6,1.9c-3.7,0-6.3-1.1-8-3.4c-1.4-1.9-2.2-4.6-2.4-8.2h26.2l0.1-2.1c0-5.7-1.4-10.3-4.3-13.7
		c-2.9-3.5-6.7-5.2-11.4-5.2c-5.2,0-9.3,1.8-12.4,5.3c-3.1,3.6-4.6,8.4-4.6,14.4c0,5.7,1.5,10.1,4.4,13.3c2.9,3.2,6.9,4.8,12,4.8
		C285.4,224.3,288.9,223.2,291.5,221.2L291.5,221.2z M271.3,202.6c0.3-3,1.2-5.5,2.7-7.3c1.9-2.4,4.4-3.6,7.6-3.6
		c3.2,0,5.5,1,7.2,3.1c1.5,1.9,2.3,4.4,2.5,7.8H271.3L271.3,202.6z M327.2,210.4c-0.5,2.8-1.6,4.9-3.1,6.4s-3.5,2.3-5.9,2.3
		c-3.2,0-5.6-1.2-7.2-3.5c-1.6-2.3-2.4-5.7-2.4-10.3c0-4.3,0.9-7.7,2.6-10.1c1.7-2.4,4.1-3.7,7.2-3.7c2.6,0,4.6,0.7,6.2,2.1
		c1.5,1.4,2.4,3.4,2.7,6h5.8c-0.2-4.1-1.6-7.4-4.1-9.7c-2.6-2.4-6-3.5-10.3-3.5c-5,0-8.9,1.7-11.8,5.1c-2.9,3.4-4.4,8-4.4,13.8
		c0,5.8,1.4,10.4,4.3,13.8c2.8,3.4,6.6,5.1,11.4,5.1c4.3,0,7.7-1.2,10.3-3.6c2.6-2.4,4.2-5.8,4.8-10.3H327.2L327.2,210.4z
		 M339.1,223.3h3h3v-19.2c0-3.8,0.9-6.7,2.7-8.9c1.8-2.2,4.2-3.3,7.2-3.3c2.6,0,4.4,0.7,5.6,2s1.7,3.4,1.7,6.4v23.1h3h3v-24.6
		c0-4-1.1-7-3.2-9.1c-2.1-2.1-5.2-3.2-9.1-3.2c-3.9,0-7.2,1.5-9.8,4.6l-1,1.3V174h-3h-3V223.3L339.1,223.3z M377.2,223.3h3h3v-19.2
		c0-3.8,0.8-6.7,2.5-8.9c1.7-2.2,4-3.3,6.9-3.3c2.7,0,4.7,0.7,5.9,2.1c1.2,1.4,1.8,3.7,1.8,6.8v22.5h3h3v-24.6c0-4-1.1-7-3.2-9.1
		s-5.2-3.2-9.1-3.2c-3.9,0-7.2,1.5-9.8,4.6l-1.3,1.8v-5.3h-2.9h-2.8V223.3L377.2,223.3z M430,224.3c5,0,9-1.7,12.1-5.2
		c3.1-3.5,4.6-8.1,4.6-13.7c0-5.7-1.5-10.3-4.6-13.7c-3.1-3.5-7.1-5.2-12.1-5.2c-5,0-9,1.7-12,5.2c-3.1,3.5-4.6,8.1-4.6,13.7
		c0,5.7,1.5,10.2,4.6,13.7C421.1,222.5,425.1,224.3,430,224.3L430,224.3L430,224.3z M430,219.1c-3.2,0-5.7-1.2-7.6-3.7
		c-1.9-2.5-2.8-5.8-2.8-10c0-4.2,0.9-7.5,2.8-10c1.9-2.5,4.4-3.7,7.6-3.7c3.2,0,5.7,1.2,7.6,3.7c1.9,2.5,2.8,5.8,2.8,10
		c0,4.2-0.9,7.5-2.8,10C435.7,217.8,433.2,219.1,430,219.1L430,219.1L430,219.1z M453.7,223.3h3h3V174h-3h-3V223.3L453.7,223.3z
		 M483.5,224.3c5,0,9-1.7,12.1-5.2c3.1-3.5,4.6-8.1,4.6-13.7c0-5.7-1.5-10.3-4.6-13.7c-3.1-3.5-7.1-5.2-12.1-5.2c-5,0-9,1.7-12,5.2
		c-3.1,3.5-4.6,8.1-4.6,13.7c0,5.7,1.5,10.2,4.6,13.7C474.5,222.5,478.5,224.3,483.5,224.3L483.5,224.3L483.5,224.3z M483.5,219.1
		c-3.2,0-5.7-1.2-7.6-3.7c-1.9-2.5-2.8-5.8-2.8-10c0-4.2,0.9-7.5,2.8-10c1.9-2.5,4.4-3.7,7.6-3.7c3.2,0,5.7,1.2,7.6,3.7
		c1.9,2.5,2.8,5.8,2.8,10c0,4.2-0.9,7.5-2.8,10C489.2,217.8,486.6,219.1,483.5,219.1L483.5,219.1L483.5,219.1z M515,231.9
		c-1.4-1-2.2-2.5-2.6-4.4h-6.2c0.5,3.6,1.9,6.3,4.3,8.2c2.4,1.9,5.6,2.8,9.7,2.8c5.6,0,9.8-1.5,12.5-4.4c2.7-2.9,4.1-7.4,4.1-13.4
		v-33.2h-5.7v5.2l-0.4-0.6c-2.5-3.7-5.9-5.6-10.3-5.6c-4.5,0-8.2,1.7-11,5c-2.8,3.3-4.2,7.7-4.2,13c0,6.1,1.4,10.9,4.3,14.5
		c2.8,3.6,6.7,5.4,11.5,5.4c4,0,7.2-1.6,9.7-4.8l0,0v1.2c0,4.2-0.9,7.4-2.7,9.5c-1.8,2.2-4.4,3.3-7.9,3.3
		C518.1,233.5,516.3,232.9,515,231.9L515,231.9z M528.7,195.7c1.6,2.5,2.4,6.3,2.4,11.4c0,3.6-0.9,6.5-2.7,8.7
		c-1.8,2.2-4.1,3.3-7.1,3.3c-3.1,0-5.5-1.2-7.2-3.6c-1.7-2.4-2.5-5.8-2.5-10.2c0-4.7,0.8-8.1,2.3-10.2c1.6-2.1,4-3.2,7.4-3.2
		C524.6,191.9,527,193.1,528.7,195.7L528.7,195.7z M545.4,223.3h3h3v-35.9h-3h-3V223.3L545.4,223.3z M545.3,180.9h6.2V174h-6.2
		V180.9L545.3,180.9z M585.4,221.2c2.7-2.1,4.5-5.1,5.4-9h-6c-0.4,2-1.4,3.7-3.1,5c-1.7,1.3-3.7,1.9-6,1.9c-3.7,0-6.3-1.1-8-3.4
		c-1.4-1.9-2.2-4.6-2.4-8.2h26.2l0.1-2.1c0-5.7-1.4-10.3-4.3-13.7c-2.9-3.5-6.7-5.2-11.4-5.2c-5.2,0-9.3,1.8-12.4,5.3
		c-3.1,3.6-4.6,8.4-4.6,14.4c0,5.7,1.5,10.1,4.4,13.3c2.9,3.2,6.9,4.8,12,4.8C579.3,224.3,582.7,223.2,585.4,221.2L585.4,221.2z
		 M565.1,202.6c0.3-3,1.2-5.5,2.7-7.3c1.9-2.4,4.4-3.6,7.6-3.6c3.2,0,5.5,1,7.2,3.1c1.5,1.9,2.3,4.4,2.5,7.8H565.1L565.1,202.6z
		 M624.8,197.8c-0.2-3.6-1.5-6.4-3.9-8.4c-2.5-2-5.8-3-10-3c-4.1,0-7.4,1-9.8,3c-2.4,2-3.6,4.7-3.6,8c0,2.6,0.7,4.6,2.2,6
		c1.4,1.5,3.8,2.6,7.2,3.4l6.2,1.5c2.8,0.6,4.6,1.3,5.5,1.9c0.9,0.6,1.4,1.6,1.4,2.8c0,2-0.7,3.5-2.1,4.5c-1.4,1-3.4,1.5-6.2,1.5
		c-3.1,0-5.4-0.6-6.9-1.7c-1.5-1.1-2.4-3-2.7-5.5h-5.8c0.3,4.3,1.6,7.4,4.1,9.4c2.5,2,6.2,3,11.3,3c4.4,0,7.8-1,10.4-3.1
		c2.6-2.1,3.8-4.9,3.8-8.4c0-2.7-0.7-4.7-2.2-6.2c-1.5-1.5-4-2.7-7.5-3.5l-6.2-1.5c-2.7-0.6-4.5-1.3-5.5-1.9
		c-0.9-0.6-1.4-1.6-1.4-2.9c0-1.7,0.7-2.9,2-3.8c1.3-0.9,3.2-1.3,5.7-1.3c2.4,0,4.4,0.5,5.8,1.6c1.4,1.1,2.3,2.6,2.4,4.6H624.8
		L624.8,197.8z"/>
	<path class="st1" d="M181.6,260.6c0.3-0.3,0.6-0.6,0.9-0.9c0.2,0.9,0.4,1.5,0.8,2c0.6,0.7,1.5,1.1,2.9,1.1c0.3,0,0.6,0,0.9-0.1
		c0.4-0.1,0.7-0.2,1.1-0.3v-2.5c-0.2,0.1-0.4,0.1-0.6,0.1c-0.2,0-0.4,0-0.5,0c-0.4,0-0.6-0.1-0.9-0.3c-0.2-0.2-0.3-0.5-0.3-0.8
		v-11.3c0-2.1-0.7-3.7-2-4.8c-1.3-1.1-3.2-1.6-5.7-1.6c-2.7,0-4.7,0.6-6.1,1.7c-1.4,1.1-2.2,2.8-2.4,5.1h3.2c0.2-1.3,0.7-2.3,1.5-3
		c0.8-0.7,1.9-1,3.3-1c1.5,0,2.7,0.3,3.5,0.9c0.8,0.6,1.3,1.5,1.3,2.6v0.2c0,0.5-0.1,1-0.4,1.3c-0.2,0.3-0.6,0.6-1,0.7
		c-0.3,0.1-0.7,0.2-1.1,0.2l-4.7,0.6c-2.1,0.3-3.8,1-4.9,2c-1.1,1.1-1.7,2.6-1.7,4.4c0,1.8,0.6,3.3,1.8,4.4c1.2,1.1,2.8,1.6,4.8,1.6
		C177.7,262.9,179.9,262.1,181.6,260.6L181.6,260.6L181.6,260.6z M182.4,255.4c0,0.4-0.1,0.6-0.1,0.8c-0.3,0.9-0.9,1.7-1.7,2.4
		c-1.3,1-2.8,1.5-4.6,1.5c-1.2,0-2-0.3-2.7-0.9c-0.6-0.6-0.9-1.5-0.9-2.7c0-0.9,0.4-1.7,1.2-2.2c0.8-0.5,2-0.9,3.7-1.2l3.2-0.5
		c0.8-0.1,1.5-0.3,2.1-0.6v2.2C182.4,254.6,182.4,255,182.4,255.4L182.4,255.4L182.4,255.4z M210.5,244.6v-2.9H207v-2.5
		c0-0.8,0.2-1.4,0.5-1.8c0.4-0.4,0.9-0.6,1.5-0.6l1.4,0.1v-3.1l-1.5-0.1c-1.8,0-3.1,0.4-4,1.2c-0.9,0.8-1.3,1.9-1.3,3.4v3.5h-2.9
		v2.9h2.9v17.7h1.7h1.7v-17.7H210.5L210.5,244.6z M213.8,262.4h1.7h1.7v-20.6h-1.7h-1.7V262.4L213.8,262.4z M213.8,238h3.5V234h-3.5
		V238L213.8,238z M222.4,262.4h1.7h1.7v-11c0-2.2,0.5-3.9,1.5-5.1c1-1.3,2.3-1.9,4-1.9c1.6,0,2.7,0.4,3.4,1.2
		c0.7,0.8,1.1,2.1,1.1,3.9v13h1.7h1.7v-14.1c0-2.3-0.6-4-1.9-5.3s-3-1.9-5.3-1.9c-2.3,0-4.1,0.9-5.6,2.6l-0.8,1v-3h-1.7h-1.6V262.4
		L222.4,262.4z M252,259.7h-1.2c-0.6,0-1.1-0.1-1.5-0.4s-0.5-0.6-0.5-1.1v-13.6h3.3v-2.8h-3.3v-5.8h-3.5v5.8h-2.9v2.8h2.9v13.6
		c0,1.6,0.3,2.8,0.9,3.4c0.6,0.7,1.7,1,3.2,1c0.5,0,1.4-0.1,2.6-0.3V259.7L252,259.7z M269.7,261.1c1.5-1.2,2.6-2.9,3.1-5.2h-3.4
		c-0.2,1.2-0.8,2.1-1.8,2.9c-1,0.7-2.1,1.1-3.5,1.1c-2.1,0-3.6-0.7-4.6-2c-0.8-1.1-1.3-2.6-1.4-4.7h15.1l0-1.2
		c0-3.3-0.8-5.9-2.5-7.9c-1.7-2-3.8-3-6.5-3c-3,0-5.4,1-7.1,3.1c-1.8,2-2.6,4.8-2.6,8.3c0,3.3,0.8,5.8,2.5,7.7
		c1.7,1.9,4,2.8,6.9,2.8C266.2,262.9,268.2,262.3,269.7,261.1L269.7,261.1z M258.1,250.5c0.2-1.7,0.7-3.1,1.6-4.2
		c1.1-1.4,2.6-2,4.4-2c1.8,0,3.2,0.6,4.1,1.8c0.8,1.1,1.3,2.6,1.4,4.5H258.1L258.1,250.5z M290.2,254.9c-0.3,1.6-0.9,2.8-1.8,3.7
		c-0.9,0.9-2,1.3-3.4,1.3c-1.8,0-3.2-0.7-4.1-2c-0.9-1.3-1.4-3.3-1.4-5.9c0-2.5,0.5-4.4,1.5-5.8c1-1.4,2.4-2.1,4.1-2.1
		c1.5,0,2.7,0.4,3.5,1.2c0.9,0.8,1.4,2,1.5,3.4h3.3c-0.1-2.4-0.9-4.2-2.4-5.6c-1.5-1.4-3.5-2-5.9-2c-2.9,0-5.1,1-6.8,3
		c-1.7,2-2.5,4.6-2.5,7.9c0,3.3,0.8,6,2.4,7.9c1.6,2,3.8,2.9,6.6,2.9c2.5,0,4.4-0.7,5.9-2c1.5-1.4,2.4-3.3,2.8-5.9H290.2
		L290.2,254.9z M297,262.4h1.7h1.7v-11c0-2.2,0.5-3.9,1.5-5.1c1-1.3,2.4-1.9,4.2-1.9c1.5,0,2.5,0.4,3.2,1.1s1,2,1,3.7v13.3h1.7h1.7
		v-14.1c0-2.3-0.6-4-1.9-5.3s-3-1.9-5.3-1.9c-2.3,0-4.1,0.9-5.6,2.6l-0.6,0.8V234h-1.7H297V262.4L297,262.4z M342.9,254.9
		c-0.3,1.6-0.9,2.8-1.8,3.7c-0.9,0.9-2,1.3-3.4,1.3c-1.8,0-3.2-0.7-4.1-2c-0.9-1.3-1.4-3.3-1.4-5.9c0-2.5,0.5-4.4,1.5-5.8
		c1-1.4,2.4-2.1,4.1-2.1c1.5,0,2.7,0.4,3.5,1.2c0.9,0.8,1.4,2,1.5,3.4h3.3c-0.1-2.4-0.9-4.2-2.4-5.6c-1.5-1.4-3.5-2-5.9-2
		c-2.9,0-5.1,1-6.8,3c-1.7,2-2.5,4.6-2.5,7.9c0,3.3,0.8,6,2.4,7.9c1.6,2,3.8,2.9,6.6,2.9c2.5,0,4.4-0.7,5.9-2
		c1.5-1.4,2.4-3.3,2.8-5.9H342.9L342.9,254.9z M358.1,262.9c2.9,0,5.2-1,7-3c1.8-2,2.6-4.6,2.6-7.9c0-3.3-0.9-5.9-2.6-7.9
		c-1.8-2-4.1-3-7-3c-2.9,0-5.2,1-6.9,3c-1.8,2-2.6,4.6-2.6,7.9c0,3.3,0.9,5.9,2.6,7.9C352.9,261.9,355.2,262.9,358.1,262.9
		L358.1,262.9L358.1,262.9z M358.1,259.9c-1.8,0-3.3-0.7-4.3-2.1c-1.1-1.4-1.6-3.3-1.6-5.8c0-2.4,0.5-4.3,1.6-5.8
		c1.1-1.4,2.5-2.1,4.3-2.1c1.8,0,3.3,0.7,4.4,2.1c1.1,1.4,1.6,3.4,1.6,5.8c0,2.4-0.5,4.3-1.6,5.8
		C361.4,259.2,359.9,259.9,358.1,259.9L358.1,259.9L358.1,259.9z M371.6,262.4h1.7h1.7v-11c0-2.1,0.5-3.8,1.5-5.1s2.2-2,3.8-2
		c1.1,0,2,0.3,2.6,1c0.6,0.7,0.9,1.7,0.9,2.9v14.1h1.7h1.7v-11.6c0-2,0.4-3.6,1.3-4.7c0.9-1.2,2.1-1.8,3.6-1.8
		c1.2,0,2.2,0.4,2.8,1.2c0.6,0.8,1,2,1,3.6v13.3h1.7h1.7v-14.5c0-2.2-0.6-3.8-1.8-5c-1.2-1.2-2.8-1.8-5-1.8c-2.1,0-3.8,0.9-5.3,2.6
		l-0.6,0.7c-0.3-0.6-0.6-1.2-1.1-1.7c-1.1-1.1-2.6-1.6-4.4-1.6c-2.2,0-4,0.9-5.6,2.8l-0.7,0.9v-3.1h-1.7h-1.6V262.4L371.6,262.4z
		 M404.3,270.5h1.7h1.7v-10.4l0.1,0.2c1.4,1.8,3.2,2.7,5.6,2.7c2.8,0,5-1,6.6-3.1c1.6-2,2.4-4.8,2.4-8.4c0-3.2-0.8-5.7-2.4-7.5
		c-1.6-1.9-3.7-2.8-6.4-2.8c-2.4,0-4.4,1.1-5.9,3.3l-0.2,0.3v-2.9h-1.7h-1.6V270.5L404.3,270.5z M409.1,258.1
		c-1-1.2-1.4-2.9-1.4-5.1c0-3,0.4-5.2,1.3-6.6c0.9-1.4,2.3-2.1,4.2-2.1c1.9,0,3.3,0.6,4.2,1.9c0.9,1.2,1.3,3.2,1.3,5.7
		c0,2.6-0.5,4.6-1.4,6c-0.9,1.4-2.3,2.1-4.1,2.1C411.5,259.9,410.1,259.3,409.1,258.1L409.1,258.1z M438.3,260.6
		c0.3-0.3,0.6-0.6,0.9-0.9c0.2,0.9,0.4,1.5,0.8,2c0.6,0.7,1.5,1.1,2.9,1.1c0.3,0,0.6,0,0.9-0.1c0.4-0.1,0.7-0.2,1.1-0.3v-2.5
		c-0.2,0.1-0.4,0.1-0.6,0.1c-0.2,0-0.4,0-0.5,0c-0.4,0-0.6-0.1-0.9-0.3c-0.2-0.2-0.3-0.5-0.3-0.8v-11.3c0-2.1-0.7-3.7-2-4.8
		c-1.3-1.1-3.2-1.6-5.7-1.6c-2.7,0-4.7,0.6-6.1,1.7c-1.4,1.1-2.2,2.8-2.4,5.1h3.2c0.2-1.3,0.7-2.3,1.5-3c0.8-0.7,1.9-1,3.3-1
		c1.5,0,2.7,0.3,3.5,0.9c0.8,0.6,1.3,1.5,1.3,2.6v0.2c0,0.5-0.1,1-0.4,1.3c-0.2,0.3-0.6,0.6-1,0.7c-0.3,0.1-0.7,0.2-1.1,0.2
		l-4.7,0.6c-2.1,0.3-3.8,1-4.9,2c-1.1,1.1-1.7,2.6-1.7,4.4c0,1.8,0.6,3.3,1.8,4.4c1.2,1.1,2.8,1.6,4.8,1.6
		C434.4,262.9,436.5,262.1,438.3,260.6L438.3,260.6L438.3,260.6z M439,255.4c0,0.4-0.1,0.6-0.1,0.8c-0.3,0.9-0.9,1.7-1.7,2.4
		c-1.3,1-2.8,1.5-4.6,1.5c-1.2,0-2-0.3-2.7-0.9c-0.6-0.6-0.9-1.5-0.9-2.7c0-0.9,0.4-1.7,1.2-2.2c0.8-0.5,2-0.9,3.7-1.2l3.2-0.5
		c0.8-0.1,1.5-0.3,2.1-0.6v2.2C439.1,254.6,439.1,255,439,255.4L439,255.4L439,255.4z M448.4,262.4h1.7h1.7v-11
		c0-2.2,0.5-3.9,1.5-5.1c1-1.3,2.3-1.9,4-1.9c1.6,0,2.7,0.4,3.4,1.2c0.7,0.8,1.1,2.1,1.1,3.9v13h1.7h1.7v-14.1c0-2.3-0.6-4-1.9-5.3
		s-3-1.9-5.3-1.9c-2.3,0-4.1,0.9-5.6,2.6l-0.8,1v-3h-1.7h-1.6V262.4L448.4,262.4z"/>
	<path class="st1" d="M486.9,241.7H485h-1.9l-5.6,17.1h0l-5.5-17.1h-2h-2l7.7,21v0l-0.1,0.3c-0.7,1.8-1.3,3-1.8,3.6
		c-0.5,0.6-1.2,1-2,1c-0.8,0-1.5-0.1-2-0.3v3.2c0.5,0.2,1.1,0.2,1.7,0.2c1.9,0,3.3-0.5,4.2-1.5c0.9-1,2-3.1,3.2-6.2L486.9,241.7
		L486.9,241.7z"/>
</g>
</svg>
