<svg xmlns="http://www.w3.org/2000/svg" width="211.193" height="53.012" viewBox="0 0 211.193 53.012">
  <g id="Group_13359" data-name="Group 13359" transform="translate(-39.118 -34.882)">
    <g id="Group_1" data-name="Group 1" transform="translate(81.373 51.922)">
      <path id="Subtraction_1" data-name="Subtraction 1" d="M11.441,22.663a13.848,13.848,0,0,1-3.222-.38,10.5,10.5,0,0,1-6.036-3.968A11.9,11.9,0,0,1,.013,10.8,11.247,11.247,0,0,1,2.95,3.568,11.17,11.17,0,0,1,9.782.129,12.4,12.4,0,0,1,17.82,1.691a10.711,10.711,0,0,1,4.668,6.164,12.386,12.386,0,0,1-1.059,9.459,10.375,10.375,0,0,1-5.785,4.695A13.8,13.8,0,0,1,11.441,22.663Zm.012-19.646a7.911,7.911,0,0,0-1.2.091v.007A7.027,7.027,0,0,0,5.566,5.756a9.273,9.273,0,0,0-1.645,7,8.165,8.165,0,0,0,2.959,5.383,8.048,8.048,0,0,0,6.337,1.34,6.736,6.736,0,0,0,4.243-2.592,9.369,9.369,0,0,0,1.7-6.093,8.4,8.4,0,0,0-2.654-5.939A7.859,7.859,0,0,0,11.454,3.017Z" transform="translate(0 0)" fill="#ec4e44" stroke="rgba(0,0,0,0)" stroke-miterlimit="10" stroke-width="1"/>
    </g>
    <g id="Group_16" data-name="Group 16" transform="translate(39.118 34.882)">
      <path id="Path_36" data-name="Path 36" d="M775,1476.4q8.26-.019,16.516-.005-1.605,5.872-3.231,11.74a4.675,4.675,0,0,0-1.334.068c-2.705,9.316-5.34,18.653-8.014,27.974q-7.645-.009-15.29,0Q769.3,1496.285,775,1476.4" transform="translate(-763.648 -1476.393)" fill="#ec4e44"/>
      <path id="Path_37" data-name="Path 37" d="M794.914,1496.031a4.663,4.663,0,0,1,1.334-.068h15.178q-5.467,19.9-10.963,39.784-8.459,0-16.914,0,1.678-5.867,3.354-11.739c2.676-9.322,5.308-18.66,8.011-27.974" transform="translate(-771.612 -1484.217)" fill="#181817"/>
    </g>
    <g id="Group_157" data-name="Group 157" transform="translate(106.282 46.709)">
      <g id="Group_148" data-name="Group 148" transform="translate(0 4.057)">
        <g id="Group_147" data-name="Group 147">
          <path id="Path_672-2" data-name="Path 672-2" d="M1023.824,1497.379c1.173.014,2.344,0,3.517.006-.012,1.241.03,2.475-.023,3.71-1.167-.032-2.336-.006-3.505-.015,0-1.234-.016-2.469.01-3.7m-42.466,7.2a6.554,6.554,0,0,1,4.372.547,4.479,4.479,0,0,1,1.895,2.181,5.819,5.819,0,0,1,3.542-2.646,6.588,6.588,0,0,1,5.345.8,6.251,6.251,0,0,1,2.221,5c0,3.42.006,6.842,0,10.262-1.147-.006-2.294,0-3.44,0-.006-3.308,0-6.617-.006-9.925a3.563,3.563,0,0,0-1.608-3.194,3.679,3.679,0,0,0-4.558,1.13,5.4,5.4,0,0,0-.807,2.9v9.094h-3.481c-.012-3.308,0-6.617-.006-9.925a3.537,3.537,0,0,0-1.48-3.127,3.679,3.679,0,0,0-4.688,1.076,7.127,7.127,0,0,0-.847,4.053c0,2.639-.01,5.277.006,7.916-1.15.024-2.3,0-3.453.01-.007-5.282.026-10.565-.053-15.845,1.121-.036,2.244-.006,3.367-.017a13.225,13.225,0,0,1,.083,2.208,5.575,5.575,0,0,1,3.6-2.481m28.683.331a7.927,7.927,0,0,1,4.554-.261,5.251,5.251,0,0,1,3.365,2.438,8.242,8.242,0,0,1,.949,4.2v9.429h-3.526q0-3.883,0-7.765a10.942,10.942,0,0,0-.3-3.318,3.15,3.15,0,0,0-1.683-1.985,4.7,4.7,0,0,0-3.242-.1,3.963,3.963,0,0,0-2.38,2.244,9.53,9.53,0,0,0-.625,3.824v7.1h-3.486c-.026-5.288.05-10.577-.043-15.862,1.14.009,2.283-.017,3.424.014.052.872.117,1.745.1,2.619a5.468,5.468,0,0,1,2.881-2.58m13.774-.053h3.528v15.864c-1.18-.006-2.359.017-3.538-.012.02-5.283,0-10.567.01-15.849Z" transform="translate(-974.307 -1497.379)" fill="#ec4e44"/>
          <path id="Path_673-2" data-name="Path 673-2" d="M1041.028,1497.4h3.526q.005,7.291,0,14.58c.022,2.917-.05,5.837.045,8.756h-3.439a19.227,19.227,0,0,1-.1-2.2,5.3,5.3,0,0,1-2.564,2.129,9.366,9.366,0,0,1-4.946.29,7.1,7.1,0,0,1-4.155-2.64,8.678,8.678,0,0,1-1.661-5.519,8.339,8.339,0,0,1,3.081-6.6,8.125,8.125,0,0,1,5.928-1.708,5.685,5.685,0,0,1,4.29,2.08c-.02-3.061-.006-6.12-.007-9.177m-5.866,10.031a4.537,4.537,0,0,0-2.977,2.15,6.4,6.4,0,0,0,.556,7.234,4.881,4.881,0,0,0,4.357,1.416,4.282,4.282,0,0,0,3.127-1.8,7.481,7.481,0,0,0,.89-4.782,4.67,4.67,0,0,0-1.806-3.582,5.89,5.89,0,0,0-4.146-.643m-61.108-5.494a11.126,11.126,0,0,1,7.542-3.671,13.072,13.072,0,0,1,7.464,1.416,8.666,8.666,0,0,1,4.142,5.694c-1.253,0-2.505,0-3.76,0a6.285,6.285,0,0,0-3.087-3.459,8.96,8.96,0,0,0-5.447-.5,6.969,6.969,0,0,0-4.724,3.64,10.564,10.564,0,0,0-.857,6.564,7.917,7.917,0,0,0,3.582,5.542,8.626,8.626,0,0,0,6.865.592,6.324,6.324,0,0,0,3.664-3.673c1.232.006,2.467,0,3.7.006a9.573,9.573,0,0,1-3.74,5.327,12.6,12.6,0,0,1-7.781,1.729,10.818,10.818,0,0,1-7.715-3.629,12.557,12.557,0,0,1,.155-15.591m24.7,3.95a8.959,8.959,0,0,1,5.606-1.424,8.588,8.588,0,0,1,5.21,1.479,4.8,4.8,0,0,1,1.677,3.563c.052,3.746-.089,7.493.139,11.236h-3.321a17.479,17.479,0,0,1-.178-2.108,5.264,5.264,0,0,1-4,2.4,9.125,9.125,0,0,1-5.318-.6,4.789,4.789,0,0,1-2.577-3.45,5.082,5.082,0,0,1,.7-3.69,6,6,0,0,1,3.849-2.151,41.5,41.5,0,0,1,7.313-.331,4.331,4.331,0,0,0-.54-2.59,3.442,3.442,0,0,0-2.605-1.17,5.447,5.447,0,0,0-3.214.555,2.878,2.878,0,0,0-1.184,1.915c-1.173.006-2.344,0-3.515,0a5.086,5.086,0,0,1,1.961-3.639m1.711,8a2.346,2.346,0,0,0-.487,3.627,4.053,4.053,0,0,0,3.042.989,5.052,5.052,0,0,0,3.77-1.456,5.568,5.568,0,0,0,1.062-3.819H1005.2c-1.585.012-3.28-.1-4.726.662m22.172-8.7a7.766,7.766,0,0,1,3.4-.726c.006,1.1-.007,2.212.009,3.318a6.34,6.34,0,0,0-4.556,1.552,6.564,6.564,0,0,0-1.763,4.641v6.769c-1.178.006-2.354,0-3.529,0v-15.862c1.13,0,2.26.006,3.391,0,.1,1.108.105,2.221.129,3.332a6.278,6.278,0,0,1,2.921-3.025Z" transform="translate(-914.246 -1497.383)" fill="#181817"/>
        </g>
      </g>
      <g id="Group_6638" data-name="Group 6638" transform="translate(136.304 0)">
        <g id="R" transform="translate(2.863 1.904)" style="isolation: isolate">
          <path id="Path_19145" data-name="Path 19145" d="M.226.313v-3.5h1.28a1.614,1.614,0,0,1,.634.115.9.9,0,0,1,.421.35,1.087,1.087,0,0,1,.15.6,1.022,1.022,0,0,1-.164.611,1.154,1.154,0,0,1-.431.359l.79,1.47H2.191l-.675-1.3H.866v1.3Zm.64-1.835h.47a.749.749,0,0,0,.55-.161.566.566,0,0,0,.155-.409A.548.548,0,0,0,1.888-2.5a.746.746,0,0,0-.528-.149h-.5Z" transform="translate(-0.449 3.386)" fill="#181817"/>
        </g>
        <g id="Path_15685" data-name="Path 15685" transform="translate(0 0.041)">
          <path id="Path_38" data-name="Path 38" d="M1098.077,1491.151a3.863,3.863,0,1,1-3.863,3.863h0A3.863,3.863,0,0,1,1098.077,1491.151Z" transform="translate(-1094.214 -1491.151)" fill="none"/>
          <path id="Path_39" data-name="Path 39" d="M1098.077,1491.816a3.2,3.2,0,1,0,3.2,3.2,3.2,3.2,0,0,0-3.2-3.2m0-.662a3.862,3.862,0,1,1-3.862,3.862A3.862,3.862,0,0,1,1098.077,1491.154Z" transform="translate(-1094.214 -1491.152)" fill="#181817"/>
        </g>
      </g>
    </g>
    <g id="Group_15" data-name="Group 15" transform="translate(81.373 79.114)">
      <path id="Path_19476" data-name="Path 19476" d="M844.326,1557.373a5.846,5.846,0,0,1-1.054-.1,9.114,9.114,0,0,1-1.006-.241,5.165,5.165,0,0,1-.735-.274l.18-1.643q.422.2.884.379a6.837,6.837,0,0,0,.94.284,4.442,4.442,0,0,0,.976.108,1.8,1.8,0,0,0,.989-.241.815.815,0,0,0,.37-.731.874.874,0,0,0-.212-.612,1.816,1.816,0,0,0-.643-.416q-.433-.184-1.109-.419a7.641,7.641,0,0,1-1.212-.533,2.451,2.451,0,0,1-.851-.756,2.023,2.023,0,0,1-.313-1.169,2.2,2.2,0,0,1,1.371-2.1,4.111,4.111,0,0,1,1.7-.31,6.118,6.118,0,0,1,1.47.172,9.053,9.053,0,0,1,1.194.37l-.161,1.579a8.8,8.8,0,0,0-1.334-.485,4.937,4.937,0,0,0-1.266-.165,2.024,2.024,0,0,0-1.045.222.732.732,0,0,0-.368.67.8.8,0,0,0,.2.572,1.636,1.636,0,0,0,.584.37q.38.153.91.321a8.428,8.428,0,0,1,1.542.64,2.573,2.573,0,0,1,.94.838,2.2,2.2,0,0,1,.318,1.211,3.043,3.043,0,0,1-.114.787,1.989,1.989,0,0,1-.452.8,2.445,2.445,0,0,1-.986.624A4.962,4.962,0,0,1,844.326,1557.373Zm9.293-.169v-6.943h-2.382v-1.495h6.316v1.495h-2.386v6.943Zm8.148,0v-8.438h5.4v1.495h-3.821v1.8h2.965v1.495h-2.965v2.157h3.941v1.495Zm9.956,0v-8.438h3a4.132,4.132,0,0,1,1.64.289,2.1,2.1,0,0,1,1.016.892,3.072,3.072,0,0,1,.346,1.543,3.2,3.2,0,0,1-.343,1.57,2.112,2.112,0,0,1-1.007.917,3.927,3.927,0,0,1-1.615.3h-1.495v2.93Zm1.543-4.219h1.314a1.723,1.723,0,0,0,1.185-.356,1.431,1.431,0,0,0,.395-1.115,1.4,1.4,0,0,0-.4-1.109,1.8,1.8,0,0,0-1.214-.354h-1.277Zm17.972,4.387a3.731,3.731,0,0,1-1.962-.47,2.88,2.88,0,0,1-1.156-1.321,4.849,4.849,0,0,1-.377-1.994v-4.821h1.542v4.424a7.035,7.035,0,0,0,.081,1.1,2.46,2.46,0,0,0,.281.856,1.4,1.4,0,0,0,.594.551,2.66,2.66,0,0,0,1.989,0,1.384,1.384,0,0,0,.594-.551,2.457,2.457,0,0,0,.286-.856,7.125,7.125,0,0,0,.081-1.1v-4.424h1.542v4.821a4.849,4.849,0,0,1-.379,1.994,2.88,2.88,0,0,1-1.154,1.321A3.731,3.731,0,0,1,891.238,1557.373Zm8.365-.169v-8.438h3a4.13,4.13,0,0,1,1.639.289,2.1,2.1,0,0,1,1.016.892,3.072,3.072,0,0,1,.346,1.543,3.21,3.21,0,0,1-.343,1.57,2.116,2.116,0,0,1-1.007.917,3.927,3.927,0,0,1-1.615.3h-1.495v2.93Zm1.543-4.219h1.314a1.722,1.722,0,0,0,1.185-.356,1.431,1.431,0,0,0,.394-1.115,1.4,1.4,0,0,0-.4-1.109,1.806,1.806,0,0,0-1.214-.354h-1.277Zm16.513,4.219v-3.411l-2.965-5.026h1.688l2.41,4.279h-.723l2.411-4.279h1.688l-2.965,5.026v3.411Zm11.788.169a4.2,4.2,0,0,1-2.145-.546,3.869,3.869,0,0,1-1.477-1.527,5.254,5.254,0,0,1,0-4.622,3.87,3.87,0,0,1,1.477-1.531,4.491,4.491,0,0,1,4.291,0,3.873,3.873,0,0,1,1.477,1.531,5.263,5.263,0,0,1,0,4.619,3.872,3.872,0,0,1-1.477,1.527A4.2,4.2,0,0,1,929.448,1557.373Zm0-1.495a2.507,2.507,0,0,0,1.41-.373,2.286,2.286,0,0,0,.849-1.028,4.06,4.06,0,0,0,0-2.983,2.286,2.286,0,0,0-.849-1.027,2.845,2.845,0,0,0-2.821,0,2.29,2.29,0,0,0-.85,1.027,4.076,4.076,0,0,0,0,2.983,2.29,2.29,0,0,0,.85,1.028A2.508,2.508,0,0,0,929.448,1555.878Zm12.017,1.495a3.73,3.73,0,0,1-1.962-.47,2.88,2.88,0,0,1-1.154-1.321,4.847,4.847,0,0,1-.379-1.994v-4.821h1.542v4.424a7.035,7.035,0,0,0,.081,1.1,2.457,2.457,0,0,0,.286.856,1.384,1.384,0,0,0,.594.551,2.661,2.661,0,0,0,1.989,0,1.39,1.39,0,0,0,.593-.551,2.443,2.443,0,0,0,.286-.856,7.094,7.094,0,0,0,.08-1.1v-4.424h1.543v4.821a4.85,4.85,0,0,1-.38,1.994,2.874,2.874,0,0,1-1.154,1.321A3.729,3.729,0,0,1,941.465,1557.373Zm8.365-.169v-8.438h3.085a3.882,3.882,0,0,1,1.527.277,2.182,2.182,0,0,1,1.016.843,2.624,2.624,0,0,1,.361,1.435,2.466,2.466,0,0,1-.395,1.473,2.77,2.77,0,0,1-1.04.865l1.905,3.544h-1.724l-1.627-3.134h-1.567v3.134Zm1.543-4.424h1.133a1.808,1.808,0,0,0,1.326-.389,1.367,1.367,0,0,0,.373-.985,1.322,1.322,0,0,0-.368-.991,1.8,1.8,0,0,0-1.272-.363h-1.193Zm14.934,4.424v-8.438h1.543v7.063h3.472v1.375Zm9.137,0v-8.438h1.543v8.438Zm6.509,0v-8.438h5.195v1.495H983.5v1.8h2.821v1.495H983.5v3.652Zm9.438,0v-8.438h5.4v1.495h-3.821v1.8h2.965v1.495h-2.965v2.157h3.938v1.495Z" transform="translate(-841.528 -1548.596)" fill="#181817"/>
    </g>
  </g>
</svg>
