<svg xmlns="http://www.w3.org/2000/svg" viewBox="0 0 167.27 42.1"><defs><style>.cls-1{fill:#f16757;}.cls-2,.cls-4{fill:#fff;}.cls-3,.cls-4{isolation:isolate;}.cls-4{font-size:4.38px;font-family:Cabin-Bold, Cabin;font-weight:700;}.cls-5{fill:none;}</style></defs><g id="Layer_2" data-name="Layer 2"><g id="Layer_1-2" data-name="Layer 1"><g id="Group_6639" data-name="Group 6639"><g id="Group_157" data-name="Group 157"><g id="Group_148" data-name="Group 148"><g id="Group_147" data-name="Group 147"><path id="Path_672-2" data-name="Path 672-2" class="cls-1" d="M9.24,0H22.69c-.87,3.19-1.76,6.38-2.63,9.56A4,4,0,0,0,19,9.62c-2.2,7.58-4.35,15.18-6.52,22.77H0Q4.6,16.19,9.24,0M95.7,10.25h2.67c0,.94,0,1.88,0,2.81-.89,0-1.77,0-2.66,0,0-.93,0-1.87,0-2.8M45,11a9.58,9.58,0,0,1,6.18,1.2,8.21,8.21,0,0,1,3.59,4.74A9.5,9.5,0,0,1,54,24.16a8,8,0,0,1-4.45,3.61,10.55,10.55,0,0,1-5.71.21,8,8,0,0,1-4.64-3.05,9.17,9.17,0,0,1,.59-11.33A8.6,8.6,0,0,1,45,11m.37,2.26a5.34,5.34,0,0,0-3.59,2,7.18,7.18,0,0,0-1.25,5.41,6.39,6.39,0,0,0,2.26,4.16,6.11,6.11,0,0,0,4.85,1,5.17,5.17,0,0,0,3.25-2,7.31,7.31,0,0,0,1.3-4.71,6.54,6.54,0,0,0-2-4.59,6,6,0,0,0-4.79-1.35M63.54,15.7a4.92,4.92,0,0,1,3.31.42,3.32,3.32,0,0,1,1.44,1.65,4.42,4.42,0,0,1,2.68-2,5,5,0,0,1,4,.61,4.73,4.73,0,0,1,1.68,3.78c0,2.59,0,5.18,0,7.77H74.09c0-2.5,0-5,0-7.51A2.69,2.69,0,0,0,72.87,18a2.79,2.79,0,0,0-3.45.85,4.06,4.06,0,0,0-.61,2.2v6.88H66.17c0-2.5,0-5,0-7.51A2.69,2.69,0,0,0,65.05,18a2.78,2.78,0,0,0-3.55.81,5.31,5.31,0,0,0-.64,3.07c0,2,0,4,0,6-.87,0-1.74,0-2.61,0,0-4,0-8,0-12,.85,0,1.69,0,2.55,0a11.8,11.8,0,0,1,.06,1.68,4.18,4.18,0,0,1,2.73-1.88M85.27,16a6.05,6.05,0,0,1,3.45-.2,4,4,0,0,1,2.55,1.85A6.24,6.24,0,0,1,92,20.79v7.14H89.31V22.05a8.23,8.23,0,0,0-.22-2.52A2.39,2.39,0,0,0,87.81,18,3.56,3.56,0,0,0,85.36,18a3,3,0,0,0-1.8,1.7,7.12,7.12,0,0,0-.48,2.89v5.38H80.44c0-4,0-8,0-12,.86,0,1.73,0,2.59,0,0,.66.09,1.33.08,2a4.18,4.18,0,0,1,2.18-2m10.43,0h2.68v12c-.9,0-1.79,0-2.68,0,0-4,0-8,0-12Z"/><path id="Path_673-2" data-name="Path 673-2" class="cls-2" d="M19,9.62a4,4,0,0,1,1.09-.06H32.41Q28,25.76,23.49,42H9.72l2.73-9.56C14.63,24.81,16.77,17.2,19,9.62m135.24.64h2.67v11c0,2.21,0,4.42,0,6.63h-2.61a15.55,15.55,0,0,1-.07-1.67,4,4,0,0,1-1.94,1.62,7.24,7.24,0,0,1-3.75.22,5.41,5.41,0,0,1-3.15-2,6.59,6.59,0,0,1-1.25-4.18,6.32,6.32,0,0,1,2.33-5A6.15,6.15,0,0,1,151,15.63a4.31,4.31,0,0,1,3.25,1.57c0-2.31,0-4.63,0-6.95m-4.44,7.6a3.41,3.41,0,0,0-2.25,1.63,4.85,4.85,0,0,0,.42,5.48,3.71,3.71,0,0,0,3.3,1.07,3.26,3.26,0,0,0,2.37-1.36,5.72,5.72,0,0,0,.67-3.62,3.58,3.58,0,0,0-1.37-2.72,4.46,4.46,0,0,0-3.14-.48M103.5,13.69a8.39,8.39,0,0,1,5.71-2.78A9.87,9.87,0,0,1,114.86,12,6.56,6.56,0,0,1,118,16.29h-2.85a4.74,4.74,0,0,0-2.34-2.62,6.77,6.77,0,0,0-4.12-.37,5.24,5.24,0,0,0-3.58,2.75,8,8,0,0,0-.65,5,6,6,0,0,0,2.71,4.2,6.56,6.56,0,0,0,5.2.45,4.82,4.82,0,0,0,2.78-2.78c.93,0,1.87,0,2.8,0a7.25,7.25,0,0,1-2.83,4,9.46,9.46,0,0,1-5.9,1.31,8.18,8.18,0,0,1-5.84-2.74,9,9,0,0,1-2-5.85,8.89,8.89,0,0,1,2.11-6m18.71,3a6.77,6.77,0,0,1,4.24-1.08,6.56,6.56,0,0,1,4,1.12,3.65,3.65,0,0,1,1.27,2.7c0,2.84-.07,5.67.1,8.51h-2.51a12.19,12.19,0,0,1-.14-1.6,4,4,0,0,1-3,1.82,7,7,0,0,1-4-.45,3.65,3.65,0,0,1-2-2.62,3.91,3.91,0,0,1,.53-2.79,4.61,4.61,0,0,1,2.92-1.63,32,32,0,0,1,5.54-.25,3.35,3.35,0,0,0-.41-2,2.62,2.62,0,0,0-2-.89,4.18,4.18,0,0,0-2.43.42,2.23,2.23,0,0,0-.9,1.45h-2.66a3.83,3.83,0,0,1,1.49-2.75m1.29,6a1.8,1.8,0,0,0-.37,2.75,3.06,3.06,0,0,0,2.31.75,3.82,3.82,0,0,0,2.85-1.1,4.23,4.23,0,0,0,.81-2.89h-2a7.51,7.51,0,0,0-3.58.5m16.79-6.59a5.75,5.75,0,0,1,2.57-.55c0,.83,0,1.67,0,2.51a4.79,4.79,0,0,0-3.45,1.18,5,5,0,0,0-1.34,3.51v5.13h-2.67v-12H138c.07.83.08,1.68.1,2.52a4.69,4.69,0,0,1,2.21-2.29Z"/></g></g><g id="Group_6638" data-name="Group 6638"><g id="R" class="cls-3"><text class="cls-4" transform="translate(162.99 11.59)">R</text></g><g id="Path_15685" data-name="Path 15685"><path class="cls-5" d="M164.35,7.21a2.93,2.93,0,1,1-2.93,2.92h0A2.93,2.93,0,0,1,164.35,7.21Z"/><path class="cls-2" d="M164.35,7.71a2.43,2.43,0,1,0,2.42,2.42,2.43,2.43,0,0,0-2.42-2.42m0-.5a2.93,2.93,0,1,1-2.93,2.92A2.92,2.92,0,0,1,164.35,7.21Z"/></g></g></g><path id="Path_19476" data-name="Path 19476" class="cls-2" d="M40.21,42.1a4.56,4.56,0,0,1-.82-.08,6.35,6.35,0,0,1-.78-.19,3.1,3.1,0,0,1-.58-.21l.14-1.28c.22.11.45.2.69.3a6.14,6.14,0,0,0,.73.22,3.94,3.94,0,0,0,.77.08,1.42,1.42,0,0,0,.77-.19.61.61,0,0,0,.28-.57.67.67,0,0,0-.16-.47,1.29,1.29,0,0,0-.5-.33l-.87-.32a6.58,6.58,0,0,1-.94-.42,1.79,1.79,0,0,1-.66-.59,1.55,1.55,0,0,1-.25-.91,1.84,1.84,0,0,1,.27-1,1.75,1.75,0,0,1,.8-.67,3.34,3.34,0,0,1,1.33-.24,4.86,4.86,0,0,1,1.14.13,7.17,7.17,0,0,1,.93.29l-.12,1.23a6.79,6.79,0,0,0-1-.37,3.69,3.69,0,0,0-1-.13,1.52,1.52,0,0,0-.81.17.57.57,0,0,0-.29.52.61.61,0,0,0,.16.45,1.56,1.56,0,0,0,.46.29c.19.08.43.16.7.25a6.06,6.06,0,0,1,1.21.5,2,2,0,0,1,.73.65,1.72,1.72,0,0,1,.25.94,3.2,3.2,0,0,1-.09.62,1.66,1.66,0,0,1-.35.62,2,2,0,0,1-.77.49A4.06,4.06,0,0,1,40.21,42.1ZM47.45,42V36.56H45.6V35.39h4.92v1.17H48.66V42Zm6.36,0V35.39H58v1.17H55V38h2.31v1.16H55V40.8h3.07V42Zm7.76,0V35.39h2.34a3.25,3.25,0,0,1,1.27.23,1.53,1.53,0,0,1,.79.69,2.3,2.3,0,0,1,.27,1.2A2.48,2.48,0,0,1,66,38.74a1.61,1.61,0,0,1-.79.71,2.88,2.88,0,0,1-1.26.23H62.77V42Zm1.2-3.29h1a1.37,1.37,0,0,0,.93-.28,1.11,1.11,0,0,0,.3-.87,1.06,1.06,0,0,0-.31-.86,1.46,1.46,0,0,0-.95-.28h-1Zm14,3.42a2.89,2.89,0,0,1-1.53-.37,2.2,2.2,0,0,1-.9-1,3.76,3.76,0,0,1-.3-1.55V35.39h1.2v3.45a5,5,0,0,0,.07.86,1.72,1.72,0,0,0,.22.66,1,1,0,0,0,.46.43,2.08,2.08,0,0,0,1.55,0,1.06,1.06,0,0,0,.46-.43,1.92,1.92,0,0,0,.23-.66,6.22,6.22,0,0,0,.06-.86V35.39h1.2v3.76a3.76,3.76,0,0,1-.3,1.55,2.18,2.18,0,0,1-.89,1A2.94,2.94,0,0,1,76.78,42.1ZM83.3,42V35.39h2.34a3.25,3.25,0,0,1,1.27.23,1.59,1.59,0,0,1,.8.69,2.51,2.51,0,0,1,.27,1.2,2.6,2.6,0,0,1-.27,1.23,1.61,1.61,0,0,1-.79.71,2.85,2.85,0,0,1-1.26.23H84.5V42Zm1.2-3.29h1a1.37,1.37,0,0,0,.93-.28,1.11,1.11,0,0,0,.3-.87,1.06,1.06,0,0,0-.31-.86,1.45,1.45,0,0,0-.94-.28h-1ZM97.37,42V39.31l-2.31-3.92h1.31l1.88,3.34h-.56l1.88-3.34h1.31l-2.31,3.92V42Zm9.19.13a3.25,3.25,0,0,1-1.67-.43,2.93,2.93,0,0,1-1.15-1.19,3.62,3.62,0,0,1-.42-1.8,3.67,3.67,0,0,1,.42-1.8,2.93,2.93,0,0,1,1.15-1.19,3.46,3.46,0,0,1,3.34,0,2.93,2.93,0,0,1,1.15,1.19,4.07,4.07,0,0,1,0,3.6,3,3,0,0,1-1.15,1.19A3.28,3.28,0,0,1,106.56,42.1Zm0-1.17a1.86,1.86,0,0,0,1.1-.29,1.79,1.79,0,0,0,.66-.8,3.17,3.17,0,0,0,0-2.32,1.79,1.79,0,0,0-.66-.8,2.17,2.17,0,0,0-2.2,0,1.67,1.67,0,0,0-.66.8,3.17,3.17,0,0,0,0,2.32,1.67,1.67,0,0,0,.66.8A1.86,1.86,0,0,0,106.56,40.93Zm9.37,1.17a2.89,2.89,0,0,1-1.53-.37,2.2,2.2,0,0,1-.9-1,3.76,3.76,0,0,1-.3-1.55V35.39h1.2v3.45a5,5,0,0,0,.07.86,1.91,1.91,0,0,0,.22.66,1.06,1.06,0,0,0,.46.43,1.75,1.75,0,0,0,.78.15,1.71,1.71,0,0,0,.77-.15,1,1,0,0,0,.47-.43,1.91,1.91,0,0,0,.22-.66,6.22,6.22,0,0,0,.06-.86V35.39h1.2v3.76a3.59,3.59,0,0,1-.29,1.55,2.26,2.26,0,0,1-.9,1A2.94,2.94,0,0,1,115.93,42.1Zm6.52-.13V35.39h2.4a3,3,0,0,1,1.19.22,1.65,1.65,0,0,1,.79.66,2,2,0,0,1,.28,1.11,1.86,1.86,0,0,1-.3,1.15,2.22,2.22,0,0,1-.81.68L127.48,42h-1.34l-1.27-2.44h-1.22V42Zm1.2-3.45h.88a1.45,1.45,0,0,0,1-.3,1.1,1.1,0,0,0,.29-.77,1,1,0,0,0-.29-.77,1.42,1.42,0,0,0-1-.29h-.93ZM135.29,42V35.39h1.2V40.9h2.71V42Zm7.12,0V35.39h1.2V42Zm5.07,0V35.39h4.05v1.17h-2.84V38h2.2v1.16h-2.2V42Zm7.36,0V35.39h4.21v1.17h-3V38h2.31v1.16h-2.31V40.8h3.07V42Z"/></g></g></g></svg>